<svg width="325" height="325" xmlns="http://www.w3.org/2000/svg" xmlns:xlink="http://www.w3.org/1999/xlink" xml:space="preserve" overflow="hidden"><g transform="translate(-2429 -1952)"><g><path d="M2593.57 1985C2592.5 1985 2592.5 1985 2592.5 1985 2592.5 1985 2592.5 1985 2592.5 1985 2521.82 1985 2464 2043.29 2464 2113.46 2464 2184.71 2521.82 2243 2592.5 2243 2592.5 2243 2592.5 2243 2592.5 2243 2593.57 2243 2593.57 2243 2593.57 2243 2663.18 2243 2721 2184.71 2721 2113.46 2721 2043.29 2663.18 1985 2593.57 1985ZM2689.95 2048.69C2700.65 2064.88 2708.15 2087.55 2709.22 2108.06 2662.1 2108.06 2662.1 2108.06 2662.1 2108.06 2662.1 2095.11 2659.96 2075.68 2656.75 2061.64 2668.53 2058.41 2680.31 2054.09 2689.95 2048.69ZM2681.38 2037.9C2672.81 2042.21 2663.18 2046.53 2653.54 2049.77 2648.18 2030.34 2639.62 2015.23 2631.05 2004.43 2650.33 2010.91 2667.46 2022.78 2681.38 2037.9ZM2600 1999.03C2613.92 2003.35 2629.98 2023.86 2638.55 2053.01 2626.77 2055.17 2611.78 2056.25 2600 2057.33L2600 1999.03ZM2600 2070.28C2612.85 2070.28 2629.98 2068.12 2642.83 2064.88 2646.04 2077.84 2648.18 2096.19 2648.18 2108.06 2600 2108.06 2600 2108.06 2600 2108.06L2600 2070.28ZM2600 2122.1C2648.18 2122.1 2648.18 2122.1 2648.18 2122.1 2648.18 2132.89 2646.04 2151.24 2642.83 2164.2 2629.98 2160.96 2612.85 2157.72 2600 2157.72L2600 2122.1ZM2553.95 2004.43C2545.38 2015.23 2536.82 2030.34 2531.46 2049.77 2521.82 2046.53 2512.19 2042.21 2503.62 2037.9 2517.54 2022.78 2534.68 2010.91 2553.95 2004.43ZM2496.12 2048.69C2504.69 2054.09 2516.47 2058.41 2528.25 2061.64 2525.04 2075.68 2522.9 2095.11 2522.9 2108.06 2475.78 2108.06 2475.78 2108.06 2475.78 2108.06 2476.85 2087.55 2484.35 2064.88 2496.12 2048.69ZM2496.12 2180.39C2484.35 2164.2 2476.85 2142.61 2475.78 2122.1 2522.9 2122.1 2522.9 2122.1 2522.9 2122.1 2522.9 2132.89 2525.04 2154.48 2528.25 2168.51 2516.47 2171.75 2504.69 2174.99 2496.12 2180.39ZM2503.62 2190.1C2512.19 2184.71 2521.82 2181.47 2531.46 2178.23 2536.82 2196.58 2545.38 2212.77 2553.95 2223.57 2534.68 2217.09 2517.54 2205.22 2503.62 2190.1ZM2585 2228.97C2571.08 2223.57 2555.02 2204.14 2546.45 2174.99 2558.23 2172.83 2573.23 2170.67 2585 2170.67L2585 2228.97ZM2585 2157.72C2572.15 2157.72 2555.02 2160.96 2542.17 2164.2 2538.96 2151.24 2536.82 2132.89 2536.82 2122.1 2585 2122.1 2585 2122.1 2585 2122.1L2585 2157.72ZM2585 2108.06C2536.82 2108.06 2536.82 2108.06 2536.82 2108.06 2536.82 2096.19 2538.96 2077.84 2542.17 2064.88 2555.02 2068.12 2572.15 2070.28 2585 2070.28L2585 2108.06ZM2585 2057.33C2573.23 2056.25 2558.23 2055.17 2546.45 2053.01 2555.02 2023.86 2571.08 2003.35 2585 1999.03L2585 2057.33ZM2600 2228.97C2600 2170.67 2600 2170.67 2600 2170.67 2611.78 2170.67 2626.77 2172.83 2638.55 2174.99 2629.98 2204.14 2613.92 2223.57 2600 2228.97ZM2631.05 2223.57C2639.62 2212.77 2648.18 2196.58 2653.54 2178.23 2663.18 2181.47 2672.81 2184.71 2681.38 2190.1 2667.46 2205.22 2650.33 2217.09 2631.05 2223.57ZM2689.95 2180.39C2680.31 2174.99 2668.53 2171.75 2656.75 2168.51 2659.96 2154.48 2662.1 2132.89 2662.1 2122.1 2709.22 2122.1 2709.22 2122.1 2709.22 2122.1 2708.15 2142.61 2700.65 2164.2 2689.95 2180.39Z" fill="#243660" fill-rule="evenodd" fill-opacity="1"/></g></g></svg>