<?xml version="1.0" encoding="UTF-8"?>
<svg xmlns="http://www.w3.org/2000/svg" xmlns:xlink="http://www.w3.org/1999/xlink" width="px" height="18px" viewBox="0 0 18 18" version="1.1">
<g id="ssurface1">
<path style=" stroke:none;fill-rule:evenodd;fill:rgb(14.117648%,21.176471%,37.64706%);fill-opacity:1;" d="M 0.136719 9.152344 C 0.136719 4.265625 4.058594 0.304688 8.898438 0.304688 C 13.738281 0.304688 17.660156 4.265625 17.660156 9.152344 C 17.660156 14.039062 13.738281 18 8.898438 18 C 4.058594 18 0.136719 14.039062 0.136719 9.152344 Z M 0.136719 9.152344 "/>
<path style="fill:none;stroke-width:2.93525;stroke-linecap:butt;stroke-linejoin:miter;stroke:rgb(100%,100%,100%);stroke-opacity:1;stroke-miterlimit:8;" d="M 220.509749 48.664503 C 220.509749 46.900156 221.944645 45.462539 223.709401 45.462539 L 255.738915 45.462539 C 257.503672 45.462539 258.938568 46.900156 258.938568 48.664503 L 258.938568 88.80341 C 258.938568 90.567757 257.503672 92.005374 255.738915 92.005374 L 223.709401 92.005374 C 221.944645 92.005374 220.509749 90.567757 220.509749 88.80341 Z M 220.509749 48.664503 " transform="matrix(0.236842,0,0,0.239111,-47.862712,-7.249502)"/>
<path style="fill:none;stroke-width:2.93525;stroke-linecap:butt;stroke-linejoin:miter;stroke:rgb(100%,100%,100%);stroke-opacity:1;stroke-miterlimit:8;" d="M 231.758013 46.328377 C 231.758013 45.854617 232.137353 45.462539 232.615651 45.462539 L 246.849158 45.462539 C 247.310964 45.462539 247.706797 45.854617 247.706797 46.328377 L 247.706797 49.742716 C 247.706797 50.216476 247.310964 50.592216 246.849158 50.592216 L 232.615651 50.592216 C 232.137353 50.592216 231.758013 50.216476 231.758013 49.742716 Z M 231.758013 46.328377 " transform="matrix(0.236842,0,0,0.239111,-47.862712,-7.249502)"/>
<path style="fill:none;stroke-width:2.93525;stroke-linecap:butt;stroke-linejoin:miter;stroke:rgb(100%,100%,100%);stroke-opacity:1;stroke-miterlimit:8;" d="M 237.019297 42.0482 C 237.019297 40.561574 238.239783 39.352669 239.724158 39.352669 C 241.225026 39.352669 242.42902 40.561574 242.42902 42.0482 C 242.42902 43.551163 241.225026 44.760068 239.724158 44.760068 C 238.239783 44.760068 237.019297 43.551163 237.019297 42.0482 Z M 237.019297 42.0482 " transform="matrix(0.236842,0,0,0.239111,-47.862712,-7.249502)"/>
<path style="fill:none;stroke-width:2.93525;stroke-linecap:round;stroke-linejoin:miter;stroke:rgb(100%,100%,100%);stroke-opacity:1;stroke-miterlimit:8;" d="M 235.600895 60.263455 L 252.242388 60.263455 " transform="matrix(0.236842,0,0,0.239111,-47.862712,-7.249502)"/>
<path style="fill:none;stroke-width:2.93525;stroke-linecap:round;stroke-linejoin:miter;stroke:rgb(100%,100%,100%);stroke-opacity:1;stroke-miterlimit:8;" d="M 235.600895 69.101529 L 252.242388 69.101529 " transform="matrix(0.236842,0,0,0.239111,-47.862712,-7.249502)"/>
<path style="fill:none;stroke-width:2.93525;stroke-linecap:round;stroke-linejoin:miter;stroke:rgb(100%,100%,100%);stroke-opacity:1;stroke-miterlimit:8;" d="M 235.600895 78.053959 L 252.242388 78.053959 " transform="matrix(0.236842,0,0,0.239111,-47.862712,-7.249502)"/>
<path style=" stroke:none;fill-rule:evenodd;fill:rgb(26.274511%,67.450982%,100%);fill-opacity:1;" d="M 7.238281 6.207031 C 7.132812 6.125 6.96875 6.164062 6.886719 6.269531 C 6.289062 7.195312 6.289062 7.195312 6.289062 7.195312 C 6.042969 6.824219 6.042969 6.824219 6.042969 6.824219 C 5.960938 6.699219 5.796875 6.679688 5.691406 6.742188 C 5.570312 6.824219 5.527344 6.988281 5.609375 7.113281 C 6.0625 7.789062 6.0625 7.789062 6.0625 7.789062 C 6.085938 7.832031 6.125 7.851562 6.167969 7.871094 C 6.207031 7.894531 6.226562 7.894531 6.269531 7.894531 C 6.289062 7.894531 6.289062 7.894531 6.289062 7.894531 C 6.332031 7.894531 6.351562 7.894531 6.394531 7.871094 C 6.433594 7.851562 6.476562 7.832031 6.496094 7.789062 C 7.320312 6.554688 7.320312 6.554688 7.320312 6.554688 C 7.382812 6.433594 7.359375 6.289062 7.238281 6.207031 "/>
</g>
</svg>
