<?xml version="1.0" encoding="UTF-8"?>
<svg xmlns="http://www.w3.org/2000/svg" xmlns:xlink="http://www.w3.org/1999/xlink" width="px" height="18px" viewBox="0 0 18 18" version="1.1">
<g id="surface1">
<path style=" stroke:none;fill-rule:evenodd;fill:rgb(14.117648%,21.176471%,37.64706%);fill-opacity:1;" d="M 0.453125 9.144531 C 0.453125 4.3125 4.367188 0.398438 9.199219 0.398438 C 14.03125 0.398438 17.945312 4.3125 17.945312 9.144531 C 17.945312 13.976562 14.03125 17.890625 9.199219 17.890625 C 4.367188 17.890625 0.453125 13.976562 0.453125 9.144531 Z M 0.453125 9.144531 "/>
<path style=" stroke:none;fill-rule:evenodd;fill:rgb(26.274511%,67.450982%,100%);fill-opacity:1;" d="M 3.40625 4.464844 C 3.40625 3.878906 3.878906 3.402344 4.460938 3.402344 L 8.683594 3.402344 C 9.265625 3.402344 9.738281 3.878906 9.738281 4.464844 L 9.738281 9.558594 C 9.738281 10.144531 9.265625 10.617188 8.683594 10.617188 L 4.460938 10.617188 C 3.878906 10.617188 3.40625 10.144531 3.40625 9.558594 Z M 3.40625 4.464844 "/>
<path style=" stroke:none;fill-rule:evenodd;fill:rgb(100%,100%,100%);fill-opacity:1;" d="M 4.023438 4.992188 C 4.023438 4.417969 4.488281 3.945312 5.066406 3.945312 L 9.238281 3.945312 C 9.8125 3.945312 10.28125 4.417969 10.28125 4.992188 L 10.28125 10.035156 C 10.28125 10.613281 9.8125 11.082031 9.238281 11.082031 L 5.066406 11.082031 C 4.488281 11.082031 4.023438 10.613281 4.023438 10.035156 Z M 4.023438 4.992188 "/>
<path style=" stroke:none;fill-rule:evenodd;fill:rgb(26.274511%,67.450982%,100%);fill-opacity:1;" d="M 5.105469 5.1875 C 5.105469 5.058594 5.207031 4.957031 5.335938 4.957031 L 8.660156 4.957031 C 8.785156 4.957031 8.890625 5.058594 8.890625 5.1875 C 8.890625 5.316406 8.785156 5.421875 8.660156 5.421875 L 5.335938 5.421875 C 5.207031 5.421875 5.105469 5.316406 5.105469 5.1875 Z M 5.105469 5.1875 "/>
<path style=" stroke:none;fill-rule:evenodd;fill:rgb(26.274511%,67.450982%,100%);fill-opacity:1;" d="M 5.105469 6.3125 C 5.105469 6.207031 5.191406 6.121094 5.296875 6.121094 L 8.695312 6.121094 C 8.804688 6.121094 8.890625 6.207031 8.890625 6.3125 C 8.890625 6.421875 8.804688 6.507812 8.695312 6.507812 L 5.296875 6.507812 C 5.191406 6.507812 5.105469 6.421875 5.105469 6.3125 Z M 5.105469 6.3125 "/>
<path style=" stroke:none;fill-rule:evenodd;fill:rgb(26.274511%,67.450982%,100%);fill-opacity:1;" d="M 5.105469 7.4375 C 5.105469 7.308594 5.207031 7.203125 5.335938 7.203125 L 8.660156 7.203125 C 8.785156 7.203125 8.890625 7.308594 8.890625 7.4375 C 8.890625 7.566406 8.785156 7.671875 8.660156 7.671875 L 5.335938 7.671875 C 5.207031 7.671875 5.105469 7.566406 5.105469 7.4375 Z M 5.105469 7.4375 "/>
<path style=" stroke:none;fill-rule:evenodd;fill:rgb(26.274511%,67.450982%,100%);fill-opacity:1;" d="M 5.105469 8.601562 C 5.105469 8.472656 5.207031 8.367188 5.335938 8.367188 L 8.660156 8.367188 C 8.785156 8.367188 8.890625 8.472656 8.890625 8.601562 C 8.890625 8.730469 8.785156 8.832031 8.660156 8.832031 L 5.335938 8.832031 C 5.207031 8.832031 5.105469 8.730469 5.105469 8.601562 Z M 5.105469 8.601562 "/>
<path style=" stroke:none;fill-rule:evenodd;fill:rgb(26.274511%,67.450982%,100%);fill-opacity:1;" d="M 5.105469 9.6875 C 5.105469 9.558594 5.207031 9.453125 5.335938 9.453125 L 8.660156 9.453125 C 8.785156 9.453125 8.890625 9.558594 8.890625 9.6875 C 8.890625 9.816406 8.785156 9.917969 8.660156 9.917969 L 5.335938 9.917969 C 5.207031 9.917969 5.105469 9.816406 5.105469 9.6875 Z M 5.105469 9.6875 "/>
<path style=" stroke:none;fill-rule:evenodd;fill:rgb(26.274511%,67.450982%,100%);fill-opacity:1;" d="M 5.800781 6.3125 C 5.800781 5.734375 6.265625 5.265625 6.84375 5.265625 L 11.015625 5.265625 C 11.589844 5.265625 12.058594 5.734375 12.058594 6.3125 L 12.058594 11.433594 C 12.058594 12.011719 11.589844 12.480469 11.015625 12.480469 L 6.84375 12.480469 C 6.265625 12.480469 5.800781 12.011719 5.800781 11.433594 Z M 5.800781 6.3125 "/>
<path style=" stroke:none;fill-rule:evenodd;fill:rgb(100%,100%,100%);fill-opacity:1;" d="M 6.339844 6.867188 C 6.339844 6.285156 6.8125 5.808594 7.394531 5.808594 L 11.621094 5.808594 C 12.203125 5.808594 12.675781 6.285156 12.675781 6.867188 L 12.675781 11.882812 C 12.675781 12.46875 12.203125 12.945312 11.621094 12.945312 L 7.394531 12.945312 C 6.8125 12.945312 6.339844 12.46875 6.339844 11.882812 Z M 6.339844 6.867188 "/>
<path style=" stroke:none;fill-rule:evenodd;fill:rgb(26.274511%,67.450982%,100%);fill-opacity:1;" d="M 7.421875 7.050781 C 7.421875 6.921875 7.527344 6.816406 7.652344 6.816406 L 10.976562 6.816406 C 11.105469 6.816406 11.207031 6.921875 11.207031 7.050781 C 11.207031 7.179688 11.105469 7.28125 10.976562 7.28125 L 7.652344 7.28125 C 7.527344 7.28125 7.421875 7.179688 7.421875 7.050781 Z M 7.421875 7.050781 "/>
<path style=" stroke:none;fill-rule:evenodd;fill:rgb(26.274511%,67.450982%,100%);fill-opacity:1;" d="M 7.421875 8.175781 C 7.421875 8.066406 7.507812 7.980469 7.613281 7.980469 L 11.015625 7.980469 C 11.121094 7.980469 11.207031 8.066406 11.207031 8.175781 C 11.207031 8.28125 11.121094 8.367188 11.015625 8.367188 L 7.613281 8.367188 C 7.507812 8.367188 7.421875 8.28125 7.421875 8.175781 Z M 7.421875 8.175781 "/>
<path style=" stroke:none;fill-rule:evenodd;fill:rgb(26.274511%,67.450982%,100%);fill-opacity:1;" d="M 7.421875 9.300781 C 7.421875 9.171875 7.527344 9.066406 7.652344 9.066406 L 10.976562 9.066406 C 11.105469 9.066406 11.207031 9.171875 11.207031 9.300781 C 11.207031 9.429688 11.105469 9.53125 10.976562 9.53125 L 7.652344 9.53125 C 7.527344 9.53125 7.421875 9.429688 7.421875 9.300781 Z M 7.421875 9.300781 "/>
<path style=" stroke:none;fill-rule:evenodd;fill:rgb(26.274511%,67.450982%,100%);fill-opacity:1;" d="M 7.421875 10.460938 C 7.421875 10.335938 7.527344 10.230469 7.652344 10.230469 L 10.976562 10.230469 C 11.105469 10.230469 11.207031 10.335938 11.207031 10.460938 C 11.207031 10.589844 11.105469 10.695312 10.976562 10.695312 L 7.652344 10.695312 C 7.527344 10.695312 7.421875 10.589844 7.421875 10.460938 Z M 7.421875 10.460938 "/>
<path style=" stroke:none;fill-rule:evenodd;fill:rgb(26.274511%,67.450982%,100%);fill-opacity:1;" d="M 7.421875 11.546875 C 7.421875 11.421875 7.527344 11.316406 7.652344 11.316406 L 10.976562 11.316406 C 11.105469 11.316406 11.207031 11.421875 11.207031 11.546875 C 11.207031 11.675781 11.105469 11.78125 10.976562 11.78125 L 7.652344 11.78125 C 7.527344 11.78125 7.421875 11.675781 7.421875 11.546875 Z M 7.421875 11.546875 "/>
<path style=" stroke:none;fill-rule:evenodd;fill:rgb(26.274511%,67.450982%,100%);fill-opacity:1;" d="M 8.117188 8.1875 C 8.117188 7.601562 8.589844 7.128906 9.171875 7.128906 L 13.394531 7.128906 C 13.980469 7.128906 14.453125 7.601562 14.453125 8.1875 L 14.453125 13.28125 C 14.453125 13.867188 13.980469 14.339844 13.394531 14.339844 L 9.171875 14.339844 C 8.589844 14.339844 8.117188 13.867188 8.117188 13.28125 Z M 8.117188 8.1875 "/>
<path style=" stroke:none;fill-rule:evenodd;fill:rgb(100%,100%,100%);fill-opacity:1;" d="M 8.734375 8.71875 C 8.734375 8.140625 9.203125 7.671875 9.777344 7.671875 L 13.949219 7.671875 C 14.527344 7.671875 14.992188 8.140625 14.992188 8.71875 L 14.992188 13.757812 C 14.992188 14.335938 14.527344 14.804688 13.949219 14.804688 L 9.777344 14.804688 C 9.203125 14.804688 8.734375 14.335938 8.734375 13.757812 Z M 8.734375 8.71875 "/>
<path style=" stroke:none;fill-rule:evenodd;fill:rgb(26.274511%,67.450982%,100%);fill-opacity:1;" d="M 9.816406 8.910156 C 9.816406 8.78125 9.921875 8.679688 10.050781 8.679688 L 13.371094 8.679688 C 13.5 8.679688 13.601562 8.78125 13.601562 8.910156 C 13.601562 9.039062 13.5 9.144531 13.371094 9.144531 L 10.050781 9.144531 C 9.921875 9.144531 9.816406 9.039062 9.816406 8.910156 Z M 9.816406 8.910156 "/>
<path style=" stroke:none;fill-rule:evenodd;fill:rgb(26.274511%,67.450982%,100%);fill-opacity:1;" d="M 9.816406 10.035156 C 9.816406 9.929688 9.902344 9.84375 10.011719 9.84375 L 13.410156 9.84375 C 13.515625 9.84375 13.601562 9.929688 13.601562 10.035156 C 13.601562 10.144531 13.515625 10.230469 13.410156 10.230469 L 10.011719 10.230469 C 9.902344 10.230469 9.816406 10.144531 9.816406 10.035156 Z M 9.816406 10.035156 "/>
<path style=" stroke:none;fill-rule:evenodd;fill:rgb(26.274511%,67.450982%,100%);fill-opacity:1;" d="M 9.816406 11.160156 C 9.816406 11.03125 9.921875 10.929688 10.050781 10.929688 L 13.371094 10.929688 C 13.5 10.929688 13.601562 11.03125 13.601562 11.160156 C 13.601562 11.289062 13.5 11.394531 13.371094 11.394531 L 10.050781 11.394531 C 9.921875 11.394531 9.816406 11.289062 9.816406 11.160156 Z M 9.816406 11.160156 "/>
<path style=" stroke:none;fill-rule:evenodd;fill:rgb(26.274511%,67.450982%,100%);fill-opacity:1;" d="M 9.816406 12.324219 C 9.816406 12.195312 9.921875 12.089844 10.050781 12.089844 L 13.371094 12.089844 C 13.5 12.089844 13.601562 12.195312 13.601562 12.324219 C 13.601562 12.453125 13.5 12.558594 13.371094 12.558594 L 10.050781 12.558594 C 9.921875 12.558594 9.816406 12.453125 9.816406 12.324219 Z M 9.816406 12.324219 "/>
<path style=" stroke:none;fill-rule:evenodd;fill:rgb(26.274511%,67.450982%,100%);fill-opacity:1;" d="M 9.816406 13.410156 C 9.816406 13.28125 9.921875 13.175781 10.050781 13.175781 L 13.371094 13.175781 C 13.5 13.175781 13.601562 13.28125 13.601562 13.410156 C 13.601562 13.539062 13.5 13.644531 13.371094 13.644531 L 10.050781 13.644531 C 9.921875 13.644531 9.816406 13.539062 9.816406 13.410156 Z M 9.816406 13.410156 "/>
</g>
</svg>
