<svg width="18" height="18" xmlns="http://www.w3.org/2000/svg" xmlns:xlink="http://www.w3.org/1999/xlink" xml:space="preserve" overflow="hidden" viewBox="0 0 76 76"><defs><clipPath id="clip0"><rect x="280" y="396" width="76" height="76" /></clipPath><clipPath id="clip1"><rect x="280" y="396" width="76" height="76" /></clipPath><clipPath id="clip2"><rect x="280" y="397" width="76" height="75" /></clipPath><clipPath id="clip3"><rect x="280" y="397" width="76" height="75" /></clipPath><clipPath id="clip4"><rect x="280" y="397" width="76" height="75" /></clipPath><clipPath id="clip5"><rect x="280" y="397" width="76" height="75" /></clipPath><clipPath id="clip6"><rect x="280" y="397" width="76" height="75" /></clipPath></defs><g clip-path="url(#clip0)" transform="translate(-280 -396)"><g clip-path="url(#clip1)"><g clip-path="url(#clip2)"><g clip-path="url(#clip3)"><g clip-path="url(#clip4)"><g clip-path="url(#clip5)"><g clip-path="url(#clip6)"><path d="M817.056 485.047C817.056 464.4 833.792 447.664 854.439 447.664 875.086 447.664 891.822 464.4 891.822 485.047 891.822 505.694 875.086 522.43 854.439 522.43 833.792 522.43 817.056 505.694 817.056 485.047Z" fill="#243660" fill-rule="evenodd" fill-opacity="1" transform="matrix(1.00086 0 0 1 -536.591 -50.4299)" /><path d="M849.5 473.168C850.271 464.35 858.044 457.827 866.862 458.598 875.68 459.369 882.203 467.143 881.435 475.96 880.664 484.778 872.89 491.301 864.072 490.533 855.252 489.762 848.729 481.988 849.5 473.168Z" fill="#243660" fill-rule="evenodd" fill-opacity="1" transform="matrix(1.00086 0 0 1 -536.591 -50.4299)" /><path d="M868.192 466.827C868.192 466.827 867.647 466.78 867.105 466.731 863.301 466.4 863.301 466.4 863.301 466.4 862.834 471.755 862.834 471.755 862.834 471.755 867.722 472.182 867.722 472.182 867.722 472.182 868.192 466.827 868.192 466.827 868.192 466.827" fill="#196B24" fill-rule="evenodd" fill-opacity="1" transform="matrix(1.00086 0 0 1 -536.591 -50.4299)" /><path d="M865.963 461.002C864.876 460.907 863.692 461.93 863.547 463.605 863.301 466.4 863.301 466.4 863.301 466.4 867.105 466.731 867.105 466.731 867.105 466.731 867.647 466.78 868.192 466.827 868.192 466.827 868.435 464.033 868.435 464.033 868.435 464.033 868.582 462.357 867.593 461.145 865.963 461.002" fill="#196B24" fill-rule="evenodd" fill-opacity="1" transform="matrix(1.00086 0 0 1 -536.591 -50.4299)" /><path d="M867.133 478.932C862.243 478.505 862.243 478.505 862.243 478.505 861.621 485.626 861.621 485.626 861.621 485.626 861.526 486.722 862.516 487.914 863.603 488.007 865.231 488.15 866.414 487.15 866.509 486.054 867.133 478.932 867.133 478.932 867.133 478.932" fill="#196B24" fill-rule="evenodd" fill-opacity="1" transform="matrix(1.00086 0 0 1 -536.591 -50.4299)" /><path d="M862.385 476.876 867.276 477.304 867.133 478.932 862.243 478.505Z" fill="#196B24" fill-rule="nonzero" fill-opacity="1" transform="matrix(1.00086 0 0 1 -536.591 -50.4299)" /><path d="M862.385 476.876 867.276 477.304 867.133 478.932 862.243 478.505Z" fill="#196B24" fill-rule="nonzero" fill-opacity="1" transform="matrix(1.00086 0 0 1 -536.591 -50.4299)" /><path d="M862.82 471.752C854.077 470.988 854.077 470.988 854.077 470.988 852.984 470.893 851.792 471.937 851.643 473.643 851.544 474.78 852.537 476.014 853.628 476.11 862.371 476.874 862.371 476.874 862.371 476.874 862.82 471.752 862.82 471.752 862.82 471.752M875.932 472.9C867.736 472.182 867.736 472.182 867.736 472.182 867.29 477.304 867.29 477.304 867.29 477.304 875.484 478.021 875.484 478.021 875.484 478.021 877.124 478.164 878.315 477.121 878.416 475.984 878.565 474.276 877.572 473.042 875.932 472.9" fill="#196B24" fill-rule="evenodd" fill-opacity="1" transform="matrix(1.00086 0 0 1 -536.591 -50.4299)" /><path d="M862.834 471.755 867.722 472.182 867.276 477.304 862.385 476.876Z" fill="#196B24" fill-rule="nonzero" fill-opacity="1" transform="matrix(1.00086 0 0 1 -536.591 -50.4299)" /><path d="M862.834 471.755 867.722 472.182 867.276 477.304 862.385 476.876Z" fill="#196B24" fill-rule="nonzero" fill-opacity="1" transform="matrix(1.00086 0 0 1 -536.591 -50.4299)" /><path d="M861.621 485.614C863.549 463.568 863.549 463.568 863.549 463.568 863.694 461.916 864.876 460.907 865.963 461.002 867.593 461.145 868.582 462.341 868.437 463.995 866.512 486.04 866.512 486.04 866.512 486.04 866.414 487.143 865.231 488.15 863.603 488.007 862.516 487.914 861.526 486.715 861.621 485.614Z" fill="#BFBFBF" fill-rule="evenodd" fill-opacity="1" transform="matrix(1.00086 0 0 1 -536.591 -50.4299)" /><path d="M854.082 470.991C875.937 472.9 875.937 472.9 875.937 472.9 877.577 473.044 878.57 474.278 878.421 475.984 878.322 477.121 877.129 478.166 875.491 478.021 853.635 476.112 853.635 476.112 853.635 476.112 852.542 476.016 851.549 474.783 851.65 473.645 851.797 471.937 852.991 470.895 854.082 470.991Z" fill="#BFBFBF" fill-rule="evenodd" fill-opacity="1" transform="matrix(1.00086 0 0 1 -536.591 -50.4299)" /><path d="M854.843 479.446C871.731 465.428 871.731 465.428 871.731 465.428 872.937 464.428 874.603 464.572 875.617 465.769 876.631 466.963 876.488 468.612 875.28 469.612 858.393 483.631 858.393 483.631 858.393 483.631 857.187 484.633 855.521 484.486 854.507 483.292 853.493 482.096 853.635 480.449 854.843 479.446Z" fill="#BFBFBF" fill-rule="evenodd" fill-opacity="1" transform="matrix(1.00086 0 0 1 -536.591 -50.4299)" /><path d="M860.07 464.409C874.271 481.145 874.271 481.145 874.271 481.145 875.285 482.341 875.14 483.988 873.935 484.988 872.729 485.991 871.063 485.846 870.049 484.65 855.848 467.914 855.848 467.914 855.848 467.914 854.834 466.72 854.979 465.07 856.185 464.07 857.39 463.068 859.056 463.215 860.07 464.409Z" fill="#BFBFBF" fill-rule="evenodd" fill-opacity="1" transform="matrix(1.00086 0 0 1 -536.591 -50.4299)" /><path d="M860.986 474.173C861.187 471.86 863.175 470.143 865.425 470.339 867.675 470.535 869.336 472.572 869.133 474.885 868.932 477.201 866.944 478.916 864.694 478.72 862.444 478.523 860.783 476.488 860.986 474.173Z" fill="#243660" fill-rule="evenodd" fill-opacity="1" transform="matrix(1.00086 0 0 1 -536.591 -50.4299)" /><path d="M865.182 470.451C867.937 470.692 869.444 472.488 869.203 475.243 869.012 477.449 867.215 478.956 864.46 478.715 862.255 478.523 860.748 476.727 860.939 474.521 861.18 471.766 862.979 470.259 865.182 470.451M865.519 466.593C861.112 466.208 856.965 469.178 856.533 474.136 856.147 478.544 859.666 482.738 864.075 483.124 869.033 483.556 872.675 479.988 873.061 475.582 873.495 470.621 870.477 467.028 865.519 466.593Z" fill="#BFBFBF" fill-rule="evenodd" fill-opacity="1" transform="matrix(1.00086 0 0 1 -536.591 -50.4299)" /><path d="M841.836 472.161C841.836 472.161 841.299 472.262 840.764 472.362 837.014 473.068 837.014 473.068 837.014 473.068 838.009 478.35 838.009 478.35 838.009 478.35 842.832 477.442 842.832 477.442 842.832 477.442 841.836 472.161 841.836 472.161 841.836 472.161" fill="#43ACFF" fill-rule="evenodd" fill-opacity="1" transform="matrix(1.00086 0 0 1 -536.591 -50.4299)" /><path d="M838.117 467.154C837.047 467.355 836.182 468.659 836.493 470.313 837.014 473.07 837.014 473.07 837.014 473.07 840.764 472.362 840.764 472.362 840.764 472.362 841.299 472.262 841.836 472.161 841.836 472.161 841.315 469.404 841.315 469.404 841.315 469.404 841.005 467.75 839.724 466.85 838.117 467.154" fill="#43ACFF" fill-rule="evenodd" fill-opacity="1" transform="matrix(1.00086 0 0 1 -536.591 -50.4299)" /><path d="M844.086 484.103C839.264 485.012 839.264 485.012 839.264 485.012 840.586 492.035 840.586 492.035 840.586 492.035 840.792 493.117 842.065 493.995 843.138 493.792 844.745 493.491 845.615 492.208 845.409 491.126 844.086 484.103 844.086 484.103 844.086 484.103" fill="#43ACFF" fill-rule="evenodd" fill-opacity="1" transform="matrix(1.00086 0 0 1 -536.591 -50.4299)" /><path d="M838.96 483.404 843.783 482.495 844.086 484.103 839.264 485.012Z" fill="#43ACFF" fill-rule="nonzero" fill-opacity="1" transform="matrix(1.00086 0 0 1 -536.591 -50.4299)" /><path d="M838.96 483.404 843.783 482.495 844.086 484.103 839.264 485.012Z" fill="#43ACFF" fill-rule="nonzero" fill-opacity="1" transform="matrix(1.00086 0 0 1 -536.591 -50.4299)" /><path d="M837.993 478.353C829.371 479.979 829.371 479.979 829.371 479.979 828.292 480.182 827.425 481.507 827.743 483.192 827.956 484.315 829.245 485.234 830.322 485.03 838.946 483.407 838.946 483.407 838.946 483.407 837.993 478.353 837.993 478.353 837.993 478.353M850.93 475.916C842.846 477.439 842.846 477.439 842.846 477.439 843.797 482.491 843.797 482.491 843.797 482.491 851.881 480.967 851.881 480.967 851.881 480.967 853.498 480.664 854.364 479.336 854.154 478.215 853.836 476.53 852.547 475.612 850.93 475.916" fill="#43ACFF" fill-rule="evenodd" fill-opacity="1" transform="matrix(1.00086 0 0 1 -536.591 -50.4299)" /><path d="M838.009 478.35 842.832 477.442 843.783 482.495 838.96 483.404Z" fill="#43ACFF" fill-rule="nonzero" fill-opacity="1" transform="matrix(1.00086 0 0 1 -536.591 -50.4299)" /><path d="M838.009 478.35 842.832 477.442 843.783 482.495 838.96 483.404Z" fill="#43ACFF" fill-rule="nonzero" fill-opacity="1" transform="matrix(1.00086 0 0 1 -536.591 -50.4299)" /><path d="M840.584 492.023C836.486 470.276 836.486 470.276 836.486 470.276 836.18 468.645 837.047 467.355 838.117 467.154 839.724 466.85 841.002 467.736 841.308 469.367 845.407 491.114 845.407 491.114 845.407 491.114 845.612 492.201 844.745 493.491 843.138 493.794 842.065 493.995 840.79 493.11 840.584 492.023Z" fill="#43ACFF" fill-rule="evenodd" fill-opacity="1" transform="matrix(1.00086 0 0 1 -536.591 -50.4299)" /><path d="M829.376 479.979C850.935 475.916 850.935 475.916 850.935 475.916 852.551 475.61 853.841 476.53 854.159 478.215 854.371 479.336 853.505 480.664 851.888 480.967 830.329 485.03 830.329 485.03 830.329 485.03 829.25 485.234 827.96 484.313 827.75 483.192 827.432 481.507 828.299 480.182 829.376 479.979Z" fill="#43ACFF" fill-rule="evenodd" fill-opacity="1" transform="matrix(1.00086 0 0 1 -536.591 -50.4299)" /><path d="M832.393 487.916C844.867 469.857 844.867 469.857 844.867 469.857 845.757 468.568 847.402 468.257 848.701 469.136 850 470.012 850.306 471.638 849.416 472.928 836.939 490.986 836.939 490.986 836.939 490.986 836.049 492.276 834.407 492.586 833.107 491.708 831.808 490.832 831.5 489.206 832.393 487.916Z" fill="#43ACFF" fill-rule="evenodd" fill-opacity="1" transform="matrix(1.00086 0 0 1 -536.591 -50.4299)" /><path d="M833.365 472.026C851.556 484.304 851.556 484.304 851.556 484.304 852.857 485.182 853.164 486.806 852.271 488.096 851.381 489.386 849.738 489.696 848.439 488.818 830.245 476.54 830.245 476.54 830.245 476.54 828.946 475.664 828.64 474.037 829.53 472.748 830.423 471.458 832.065 471.147 833.365 472.026Z" fill="#43ACFF" fill-rule="evenodd" fill-opacity="1" transform="matrix(1.00086 0 0 1 -536.591 -50.4299)" /><path d="M836.883 481.18C836.453 478.897 837.902 476.708 840.121 476.287 842.341 475.869 844.491 477.381 844.921 479.666 845.35 481.949 843.899 484.138 841.68 484.556 839.46 484.974 837.313 483.463 836.883 481.18Z" fill="#243660" fill-rule="evenodd" fill-opacity="1" transform="matrix(1.00086 0 0 1 -536.591 -50.4299)" /><path d="M839.918 476.463C842.635 475.951 844.572 477.273 845.084 479.991 845.495 482.166 844.171 484.103 841.453 484.614 839.28 485.026 837.341 483.701 836.932 481.528 836.421 478.811 837.743 476.871 839.918 476.463M839.201 472.657C834.853 473.477 831.664 477.456 832.584 482.346 833.404 486.694 837.925 489.783 842.273 488.963 847.166 488.042 849.708 483.621 848.89 479.273 847.967 474.383 844.091 471.736 839.201 472.657Z" fill="#43ACFF" fill-rule="evenodd" fill-opacity="1" transform="matrix(1.00086 0 0 1 -536.591 -50.4299)" /><path d="M864.096 494.378C864.096 494.378 863.668 494.04 863.241 493.701 860.252 491.327 860.252 491.327 860.252 491.327 856.909 495.535 856.909 495.535 856.909 495.535 860.752 498.586 860.752 498.586 860.752 498.586 864.096 494.378 864.096 494.378 864.096 494.378" fill="#FF3FFF" fill-rule="evenodd" fill-opacity="1" transform="matrix(1.00086 0 0 1 -536.591 -50.4299)" /><path d="M865.449 488.292C864.596 487.614 863.044 487.813 861.998 489.131 860.252 491.327 860.252 491.327 860.252 491.327 863.241 493.701 863.241 493.701 863.241 493.701 863.668 494.04 864.096 494.378 864.096 494.378 865.839 492.185 865.839 492.185 865.839 492.185 866.885 490.867 866.731 489.311 865.449 488.292" fill="#FF3FFF" fill-rule="evenodd" fill-opacity="1" transform="matrix(1.00086 0 0 1 -536.591 -50.4299)" /><path d="M856.535 503.892C852.694 500.841 852.694 500.841 852.694 500.841 848.245 506.437 848.245 506.437 848.245 506.437 847.561 507.299 847.731 508.836 848.584 509.516 849.867 510.533 851.404 510.35 852.089 509.491 856.535 503.892 856.535 503.892 856.535 503.892" fill="#FF3FFF" fill-rule="evenodd" fill-opacity="1" transform="matrix(1.00086 0 0 1 -536.591 -50.4299)" /><path d="M853.71 499.558 857.554 502.612 856.535 503.892 852.694 500.841Z" fill="#FF3FFF" fill-rule="nonzero" fill-opacity="1" transform="matrix(1.00086 0 0 1 -536.591 -50.4299)" /><path d="M853.71 499.558 857.554 502.612 856.535 503.892 852.694 500.841Z" fill="#FF3FFF" fill-rule="nonzero" fill-opacity="1" transform="matrix(1.00086 0 0 1 -536.591 -50.4299)" /><path d="M856.897 495.526C850.028 490.065 850.028 490.065 850.028 490.065 849.168 489.383 847.598 489.596 846.533 490.937 845.822 491.832 845.97 493.409 846.829 494.091 853.699 499.551 853.699 499.551 853.699 499.551 856.897 495.526 856.897 495.526 856.897 495.526M867.203 503.715C860.762 498.596 860.762 498.596 860.762 498.596 857.563 502.621 857.563 502.621 857.563 502.621 864.005 507.738 864.005 507.738 864.005 507.738 865.292 508.764 866.862 508.551 867.572 507.657 868.64 506.315 868.491 504.738 867.203 503.715" fill="#FF3FFF" fill-rule="evenodd" fill-opacity="1" transform="matrix(1.00086 0 0 1 -536.591 -50.4299)" /><path d="M856.909 495.535 860.75 498.586 857.554 502.612 853.71 499.558Z" fill="#FF3FFF" fill-rule="nonzero" fill-opacity="1" transform="matrix(1.00086 0 0 1 -536.591 -50.4299)" /><path d="M856.909 495.535 860.75 498.586 857.554 502.612 853.71 499.558Z" fill="#FF3FFF" fill-rule="nonzero" fill-opacity="1" transform="matrix(1.00086 0 0 1 -536.591 -50.4299)" /><path d="M848.255 506.428C862.021 489.1 862.021 489.1 862.021 489.1 863.054 487.801 864.596 487.614 865.449 488.292 866.729 489.311 866.895 490.855 865.862 492.154 852.096 509.479 852.096 509.479 852.096 509.479 851.407 510.346 849.864 510.533 848.584 509.516 847.731 508.836 847.565 507.292 848.255 506.428Z" fill="#FF3FFF" fill-rule="evenodd" fill-opacity="1" transform="matrix(1.00086 0 0 1 -536.591 -50.4299)" /><path d="M850.03 490.07C867.208 503.717 867.208 503.717 867.208 503.717 868.495 504.743 868.645 506.318 867.577 507.661 866.867 508.554 865.297 508.766 864.009 507.743 846.834 494.096 846.834 494.096 846.834 494.096 845.974 493.414 845.827 491.836 846.537 490.942 847.603 489.6 849.173 489.388 850.03 490.07Z" fill="#FF3FFF" fill-rule="evenodd" fill-opacity="1" transform="matrix(1.00086 0 0 1 -536.591 -50.4299)" /><path d="M846 497.544C867.82 495.166 867.82 495.166 867.82 495.166 869.378 494.995 870.687 496.035 870.874 497.593 871.061 499.15 870.03 500.444 868.472 500.614 846.654 502.991 846.654 502.991 846.654 502.991 845.096 503.161 843.787 502.122 843.6 500.565 843.414 499.007 844.442 497.713 846 497.544Z" fill="#FF3FFF" fill-rule="evenodd" fill-opacity="1" transform="matrix(1.00086 0 0 1 -536.591 -50.4299)" /><path d="M858.657 487.883C861.269 509.675 861.269 509.675 861.269 509.675 861.456 511.234 860.428 512.528 858.869 512.696 857.311 512.867 856 511.827 855.815 510.271 853.201 488.479 853.201 488.479 853.201 488.479 853.014 486.923 854.042 485.626 855.6 485.458 857.161 485.287 858.47 486.327 858.657 487.883Z" fill="#FF3FFF" fill-rule="evenodd" fill-opacity="1" transform="matrix(1.00086 0 0 1 -536.591 -50.4299)" /><path d="M854.033 496.533C855.479 494.715 858.084 494.378 859.853 495.785 861.619 497.189 861.883 499.804 860.437 501.621 858.991 503.442 856.385 503.776 854.619 502.371 852.85 500.965 852.589 498.353 854.033 496.533Z" fill="#243660" fill-rule="evenodd" fill-opacity="1" transform="matrix(1.00086 0 0 1 -536.591 -50.4299)" /><path d="M859.586 495.743C861.752 497.463 862.019 499.794 860.299 501.96 858.921 503.692 856.591 503.958 854.425 502.238 852.694 500.862 852.428 498.53 853.804 496.799 855.523 494.633 857.855 494.367 859.586 495.743M861.995 492.713C858.53 489.958 853.435 490.15 850.339 494.047 847.586 497.509 848.208 502.949 851.673 505.703 855.57 508.799 860.577 507.832 863.329 504.369 866.425 500.472 865.893 495.808 861.995 492.713Z" fill="#FF3FFF" fill-rule="evenodd" fill-opacity="1" transform="matrix(1.00086 0 0 1 -536.591 -50.4299)" /></g></g></g></g></g></g></g></svg>