<svg width="325" height="321" xmlns="http://www.w3.org/2000/svg" xmlns:xlink="http://www.w3.org/1999/xlink" xml:space="preserve" overflow="hidden"><g transform="translate(-3492 -1915)"><g><path d="M3715.86 1998.02C3715.86 1998.02 3713.53 1997.82 3711.21 1997.61 3694.93 1996.19 3694.93 1996.19 3694.93 1996.19 3692.93 2019.11 3692.93 2019.11 3692.93 2019.11 3713.85 2020.94 3713.85 2020.94 3713.85 2020.94 3715.86 1998.02 3715.86 1998.02 3715.86 1998.02" fill="#196B24" fill-rule="evenodd" fill-opacity="1"/><path d="M3706.32 1973.09C3701.67 1972.68 3696.6 1977.06 3695.98 1984.23 3694.93 1996.19 3694.93 1996.19 3694.93 1996.19 3711.21 1997.61 3711.21 1997.61 3711.21 1997.61 3713.53 1997.82 3715.86 1998.02 3715.86 1998.02 3716.9 1986.06 3716.9 1986.06 3716.9 1986.06 3717.53 1978.89 3713.3 1973.7 3706.32 1973.09" fill="#196B24" fill-rule="evenodd" fill-opacity="1"/><path d="M3711.33 2049.83C3690.4 2048 3690.4 2048 3690.4 2048 3687.74 2078.48 3687.74 2078.48 3687.74 2078.48 3687.33 2083.17 3691.57 2088.27 3696.22 2088.67 3703.19 2089.28 3708.25 2085 3708.66 2080.31 3711.33 2049.83 3711.33 2049.83 3711.33 2049.83" fill="#196B24" fill-rule="evenodd" fill-opacity="1"/><path d="M3691.01 2041.03 3711.94 2042.86 3711.33 2049.83 3690.4 2048Z" fill="#196B24" fill-rule="nonzero" fill-opacity="1"/><path d="M3691.01 2041.03 3711.94 2042.86 3711.33 2049.83 3690.4 2048Z" fill="#196B24" fill-rule="nonzero" fill-opacity="1"/><path d="M3692.87 2019.1C3655.45 2015.83 3655.45 2015.83 3655.45 2015.83 3650.77 2015.42 3645.67 2019.89 3645.03 2027.19 3644.61 2032.06 3648.86 2037.34 3653.53 2037.75 3690.95 2041.02 3690.95 2041.02 3690.95 2041.02 3692.87 2019.1 3692.87 2019.1 3692.87 2019.1M3748.99 2024.01C3713.91 2020.94 3713.91 2020.94 3713.91 2020.94 3712 2042.86 3712 2042.86 3712 2042.86 3747.07 2045.93 3747.07 2045.93 3747.07 2045.93 3754.09 2046.54 3759.19 2042.08 3759.62 2037.21 3760.26 2029.9 3756.01 2024.62 3748.99 2024.01" fill="#196B24" fill-rule="evenodd" fill-opacity="1"/><path d="M3692.93 2019.11 3713.85 2020.94 3711.94 2042.86 3691.01 2041.03Z" fill="#196B24" fill-rule="nonzero" fill-opacity="1"/><path d="M3692.93 2019.11 3713.85 2020.94 3711.94 2042.86 3691.01 2041.03Z" fill="#196B24" fill-rule="nonzero" fill-opacity="1"/><path d="M3687.74 2078.43C3695.99 1984.07 3695.99 1984.07 3695.99 1984.07 3696.61 1977 3701.67 1972.68 3706.32 1973.09 3713.3 1973.7 3717.53 1978.82 3716.91 1985.9 3708.67 2080.25 3708.67 2080.25 3708.67 2080.25 3708.25 2084.97 3703.19 2089.28 3696.22 2088.67 3691.57 2088.27 3687.33 2083.14 3687.74 2078.43Z" fill="#243660" fill-rule="evenodd" fill-opacity="1"/><path d="M3655.47 2015.84C3749.01 2024.01 3749.01 2024.01 3749.01 2024.01 3756.03 2024.63 3760.28 2029.91 3759.64 2037.21 3759.22 2042.08 3754.11 2046.55 3747.1 2045.93 3653.56 2037.76 3653.56 2037.76 3653.56 2037.76 3648.88 2037.35 3644.63 2032.07 3645.06 2027.2 3645.69 2019.89 3650.8 2015.43 3655.47 2015.84Z" fill="#243660" fill-rule="evenodd" fill-opacity="1"/><path d="M3658.73 2052.03C3731.01 1992.03 3731.01 1992.03 3731.01 1992.03 3736.17 1987.75 3743.3 1988.37 3747.64 1993.49 3751.98 1998.6 3751.37 2005.66 3746.2 2009.94 3673.92 2069.94 3673.92 2069.94 3673.92 2069.94 3668.76 2074.23 3661.63 2073.6 3657.29 2068.49 3652.95 2063.37 3653.56 2056.32 3658.73 2052.03Z" fill="#243660" fill-rule="evenodd" fill-opacity="1"/><path d="M3681.1 1987.67C3741.88 2059.3 3741.88 2059.3 3741.88 2059.3 3746.22 2064.42 3745.6 2071.47 3740.44 2075.75 3735.28 2080.04 3728.15 2079.42 3723.81 2074.3 3663.03 2002.67 3663.03 2002.67 3663.03 2002.67 3658.69 1997.56 3659.31 1990.5 3664.47 1986.22 3669.63 1981.93 3676.76 1982.56 3681.1 1987.67Z" fill="#243660" fill-rule="evenodd" fill-opacity="1"/><path d="M3685.02 2029.46C3685.88 2019.56 3694.39 2012.21 3704.02 2013.05 3713.65 2013.89 3720.76 2022.61 3719.89 2032.51 3719.03 2042.42 3710.52 2049.76 3700.89 2048.92 3691.26 2048.08 3684.15 2039.37 3685.02 2029.46Z" fill="#FFFFFF" fill-rule="evenodd" fill-opacity="1"/><path d="M3702.98 2013.53C3714.77 2014.56 3721.22 2022.25 3720.19 2034.04 3719.37 2043.48 3711.68 2049.93 3699.89 2048.9 3690.45 2048.08 3684 2040.39 3684.82 2030.95 3685.85 2019.16 3693.55 2012.71 3702.98 2013.53M3704.42 1997.02C3685.56 1995.37 3667.81 2008.08 3665.96 2029.3 3664.31 2048.17 3679.37 2066.12 3698.24 2067.77 3719.46 2069.62 3735.05 2054.35 3736.7 2035.49 3738.56 2014.26 3725.64 1998.88 3704.42 1997.02Z" fill="#243660" fill-rule="evenodd" fill-opacity="1"/><path d="M3603.06 2020.85C3603.06 2020.85 3600.76 2021.28 3598.47 2021.71 3582.42 2024.73 3582.42 2024.73 3582.42 2024.73 3586.68 2047.34 3586.68 2047.34 3586.68 2047.34 3607.32 2043.45 3607.32 2043.45 3607.32 2043.45 3603.06 2020.85 3603.06 2020.85 3603.06 2020.85" fill="#43ACFF" fill-rule="evenodd" fill-opacity="1"/><path d="M3587.14 1999.42C3582.56 2000.28 3578.86 2005.86 3580.19 2012.94 3582.42 2024.74 3582.42 2024.74 3582.42 2024.74 3598.47 2021.71 3598.47 2021.71 3598.47 2021.71 3600.76 2021.28 3603.06 2020.85 3603.06 2020.85 3600.83 2009.05 3600.83 2009.05 3600.83 2009.05 3599.5 2001.97 3594.02 1998.12 3587.14 1999.42" fill="#43ACFF" fill-rule="evenodd" fill-opacity="1"/><path d="M3612.69 2071.96C3592.05 2075.85 3592.05 2075.85 3592.05 2075.85 3597.71 2105.91 3597.71 2105.91 3597.71 2105.91 3598.59 2110.54 3604.04 2114.3 3608.63 2113.43 3615.51 2112.14 3619.23 2106.65 3618.35 2102.02 3612.69 2071.96 3612.69 2071.96 3612.69 2071.96" fill="#43ACFF" fill-rule="evenodd" fill-opacity="1"/><path d="M3590.75 2068.97 3611.39 2065.08 3612.69 2071.96 3592.05 2075.85Z" fill="#43ACFF" fill-rule="nonzero" fill-opacity="1"/><path d="M3590.75 2068.97 3611.39 2065.08 3612.69 2071.96 3592.05 2075.85Z" fill="#43ACFF" fill-rule="nonzero" fill-opacity="1"/><path d="M3586.61 2047.35C3549.71 2054.31 3549.71 2054.31 3549.71 2054.31 3545.09 2055.18 3541.38 2060.85 3542.74 2068.06 3543.65 2072.87 3549.17 2076.8 3553.78 2075.93 3590.69 2068.98 3590.69 2068.98 3590.69 2068.98 3586.61 2047.35 3586.61 2047.35 3586.61 2047.35M3641.98 2036.92C3607.38 2043.44 3607.38 2043.44 3607.38 2043.44 3611.45 2065.06 3611.45 2065.06 3611.45 2065.06 3646.05 2058.54 3646.05 2058.54 3646.05 2058.54 3652.97 2057.24 3656.68 2051.56 3655.78 2046.76 3654.42 2039.55 3648.9 2035.62 3641.98 2036.92" fill="#43ACFF" fill-rule="evenodd" fill-opacity="1"/><path d="M3586.68 2047.34 3607.32 2043.45 3611.39 2065.08 3590.75 2068.97Z" fill="#43ACFF" fill-rule="nonzero" fill-opacity="1"/><path d="M3586.68 2047.34 3607.32 2043.45 3611.39 2065.08 3590.75 2068.97Z" fill="#43ACFF" fill-rule="nonzero" fill-opacity="1"/><path d="M3597.7 2105.86C3580.16 2012.78 3580.16 2012.78 3580.16 2012.78 3578.85 2005.8 3582.56 2000.28 3587.14 1999.42 3594.02 1998.12 3599.49 2001.91 3600.8 2008.89 3618.34 2101.97 3618.34 2101.97 3618.34 2101.97 3619.22 2106.62 3615.51 2112.14 3608.63 2113.44 3604.04 2114.3 3598.58 2110.51 3597.7 2105.86Z" fill="#43ACFF" fill-rule="evenodd" fill-opacity="1"/><path d="M3549.73 2054.31C3642 2036.92 3642 2036.92 3642 2036.92 3648.92 2035.61 3654.44 2039.55 3655.8 2046.76 3656.71 2051.56 3653 2057.24 3646.08 2058.54 3553.81 2075.93 3553.81 2075.93 3553.81 2075.93 3549.19 2076.8 3543.67 2072.86 3542.77 2068.06 3541.41 2060.85 3545.12 2055.18 3549.73 2054.31Z" fill="#43ACFF" fill-rule="evenodd" fill-opacity="1"/><path d="M3562.64 2088.28C3616.03 2010.99 3616.03 2010.99 3616.03 2010.99 3619.84 2005.47 3626.88 2004.14 3632.44 2007.9 3638 2011.65 3639.31 2018.61 3635.5 2024.13 3582.1 2101.42 3582.1 2101.42 3582.1 2101.42 3578.29 2106.94 3571.26 2108.27 3565.7 2104.51 3560.14 2100.76 3558.82 2093.8 3562.64 2088.28Z" fill="#43ACFF" fill-rule="evenodd" fill-opacity="1"/><path d="M3566.8 2020.27C3644.66 2072.82 3644.66 2072.82 3644.66 2072.82 3650.23 2076.58 3651.54 2083.53 3647.72 2089.05 3643.91 2094.57 3636.88 2095.9 3631.32 2092.14 3553.45 2039.59 3553.45 2039.59 3553.45 2039.59 3547.89 2035.84 3546.58 2028.88 3550.39 2023.36 3554.21 2017.84 3561.24 2016.51 3566.8 2020.27Z" fill="#43ACFF" fill-rule="evenodd" fill-opacity="1"/><path d="M3581.86 2059.45C3580.02 2049.68 3586.22 2040.31 3595.72 2038.51 3605.22 2036.72 3614.42 2043.19 3616.26 2052.97 3618.1 2062.74 3611.89 2072.11 3602.39 2073.9 3592.89 2075.69 3583.7 2069.22 3581.86 2059.45Z" fill="#FFFFFF" fill-rule="evenodd" fill-opacity="1"/><path d="M3594.85 2039.26C3606.48 2037.07 3614.77 2042.73 3616.96 2054.36 3618.72 2063.67 3613.05 2071.96 3601.42 2074.15 3592.12 2075.91 3583.82 2070.24 3582.07 2060.94 3579.88 2049.31 3585.54 2041.01 3594.85 2039.26M3591.78 2022.97C3573.17 2026.48 3559.52 2043.51 3563.46 2064.44 3566.97 2083.05 3586.32 2096.27 3604.93 2092.76 3625.87 2088.82 3636.75 2069.9 3633.25 2051.29 3629.3 2030.36 3612.71 2019.03 3591.78 2022.97Z" fill="#43ACFF" fill-rule="evenodd" fill-opacity="1"/><path d="M3698.33 2115.94C3698.33 2115.94 3696.5 2114.49 3694.67 2113.04 3681.88 2102.88 3681.88 2102.88 3681.88 2102.88 3667.57 2120.89 3667.57 2120.89 3667.57 2120.89 3684.02 2133.95 3684.02 2133.95 3684.02 2133.95 3698.33 2115.94 3698.33 2115.94 3698.33 2115.94" fill="#FF3FFF" fill-rule="evenodd" fill-opacity="1"/><path d="M3704.12 2089.89C3700.47 2086.99 3693.83 2087.84 3689.35 2093.48 3681.88 2102.88 3681.88 2102.88 3681.88 2102.88 3694.67 2113.04 3694.67 2113.04 3694.67 2113.04 3696.5 2114.49 3698.33 2115.94 3698.33 2115.94 3705.79 2106.55 3705.79 2106.55 3705.79 2106.55 3710.27 2100.91 3709.61 2094.25 3704.12 2089.89" fill="#FF3FFF" fill-rule="evenodd" fill-opacity="1"/><path d="M3665.97 2156.66C3649.53 2143.6 3649.53 2143.6 3649.53 2143.6 3630.49 2167.55 3630.49 2167.55 3630.49 2167.55 3627.56 2171.24 3628.29 2177.82 3631.94 2180.73 3637.43 2185.08 3644.01 2184.3 3646.94 2180.62 3665.97 2156.66 3665.97 2156.66 3665.97 2156.66" fill="#FF3FFF" fill-rule="evenodd" fill-opacity="1"/><path d="M3653.88 2138.11 3670.33 2151.18 3665.97 2156.66 3649.53 2143.6Z" fill="#FF3FFF" fill-rule="nonzero" fill-opacity="1"/><path d="M3653.88 2138.11 3670.33 2151.18 3665.97 2156.66 3649.53 2143.6Z" fill="#FF3FFF" fill-rule="nonzero" fill-opacity="1"/><path d="M3667.52 2120.85C3638.12 2097.48 3638.12 2097.48 3638.12 2097.48 3634.44 2094.56 3627.72 2095.47 3623.16 2101.21 3620.12 2105.04 3620.75 2111.79 3624.43 2114.71 3653.83 2138.08 3653.83 2138.08 3653.83 2138.08 3667.52 2120.85 3667.52 2120.85 3667.52 2120.85M3711.63 2155.9C3684.06 2133.99 3684.06 2133.99 3684.06 2133.99 3670.37 2151.22 3670.37 2151.22 3670.37 2151.22 3697.94 2173.12 3697.94 2173.12 3697.94 2173.12 3703.45 2177.51 3710.17 2176.6 3713.21 2172.77 3717.78 2167.03 3717.14 2160.28 3711.63 2155.9" fill="#FF3FFF" fill-rule="evenodd" fill-opacity="1"/><path d="M3667.57 2120.89 3684.01 2133.95 3670.33 2151.18 3653.88 2138.11Z" fill="#FF3FFF" fill-rule="nonzero" fill-opacity="1"/><path d="M3667.57 2120.89 3684.01 2133.95 3670.33 2151.18 3653.88 2138.11Z" fill="#FF3FFF" fill-rule="nonzero" fill-opacity="1"/><path d="M3630.53 2167.51C3689.45 2093.35 3689.45 2093.35 3689.45 2093.35 3693.87 2087.79 3700.47 2086.99 3704.12 2089.89 3709.6 2094.25 3710.31 2100.86 3705.89 2106.42 3646.97 2180.57 3646.97 2180.57 3646.97 2180.57 3644.02 2184.28 3637.42 2185.08 3631.94 2180.73 3628.29 2177.82 3627.58 2171.21 3630.53 2167.51Z" fill="#FF3FFF" fill-rule="evenodd" fill-opacity="1"/><path d="M3638.13 2097.5C3711.65 2155.91 3711.65 2155.91 3711.65 2155.91 3717.16 2160.3 3717.8 2167.04 3713.23 2172.79 3710.19 2176.61 3703.47 2177.52 3697.96 2173.14 3624.45 2114.73 3624.45 2114.73 3624.45 2114.73 3620.77 2111.81 3620.14 2105.06 3623.18 2101.23 3627.74 2095.49 3634.46 2094.58 3638.13 2097.5Z" fill="#FF3FFF" fill-rule="evenodd" fill-opacity="1"/><path d="M3620.88 2129.49C3714.27 2119.31 3714.27 2119.31 3714.27 2119.31 3720.94 2118.58 3726.54 2123.03 3727.34 2129.7 3728.14 2136.36 3723.73 2141.9 3717.06 2142.63 3623.68 2152.8 3623.68 2152.8 3623.68 2152.8 3617.01 2153.53 3611.41 2149.08 3610.61 2142.42 3609.81 2135.75 3614.21 2130.21 3620.88 2129.49Z" fill="#FF3FFF" fill-rule="evenodd" fill-opacity="1"/><path d="M3675.05 2088.14C3686.23 2181.41 3686.23 2181.41 3686.23 2181.41 3687.03 2188.08 3682.63 2193.62 3675.96 2194.34 3669.29 2195.07 3663.68 2190.62 3662.89 2183.96 3651.7 2090.69 3651.7 2090.69 3651.7 2090.69 3650.9 2084.03 3655.3 2078.48 3661.97 2077.76 3668.65 2077.03 3674.25 2081.48 3675.05 2088.14Z" fill="#FF3FFF" fill-rule="evenodd" fill-opacity="1"/><path d="M3655.26 2125.16C3661.45 2117.38 3672.6 2115.94 3680.17 2121.96 3687.73 2127.97 3688.86 2139.16 3682.67 2146.94 3676.48 2154.73 3665.33 2156.16 3657.77 2150.15 3650.2 2144.13 3649.08 2132.95 3655.26 2125.16Z" fill="#FFFFFF" fill-rule="evenodd" fill-opacity="1"/><path d="M3679.03 2121.78C3688.3 2129.14 3689.44 2139.12 3682.08 2148.39 3676.18 2155.8 3666.21 2156.94 3656.94 2149.58 3649.53 2143.69 3648.39 2133.71 3654.28 2126.3 3661.64 2117.03 3671.62 2115.89 3679.03 2121.78M3689.34 2108.81C3674.51 2097.02 3652.7 2097.84 3639.45 2114.52 3627.67 2129.34 3630.33 2152.62 3645.16 2164.41 3661.84 2177.66 3683.27 2173.52 3695.05 2158.7 3708.3 2142.02 3706.02 2122.06 3689.34 2108.81Z" fill="#FF3FFF" fill-rule="evenodd" fill-opacity="1"/></g></g></svg>