<?xml version="1.0" encoding="UTF-8"?>
<svg xmlns="http://www.w3.org/2000/svg" xmlns:xlink="http://www.w3.org/1999/xlink" width="px" height="18px" viewBox="0 0 18 18" version="1.1">
<defs>
<clipPath id="clip1">
  <path d="M 0 0.238281 L 18 0.238281 L 18 18 L 0 18 Z M 0 0.238281 "/>
</clipPath>
</defs>
<g id="surface1">
<g clip-path="url(#clip1)" clip-rule="nonzero">
<path style=" stroke:none;fill-rule:evenodd;fill:rgb(14.117648%,21.176471%,37.64706%);fill-opacity:1;" d="M 0.277344 9.144531 C 0.277344 4.257812 4.242188 0.292969 9.136719 0.292969 C 14.03125 0.292969 18 4.257812 18 9.144531 C 18 14.035156 14.03125 18 9.136719 18 C 4.242188 18 0.277344 14.035156 0.277344 9.144531 Z M 0.277344 9.144531 "/>
</g>
<path style=" stroke:none;fill-rule:evenodd;fill:rgb(14.117648%,21.176471%,37.64706%);fill-opacity:1;" d="M 7.96875 6.332031 C 8.148438 4.246094 9.992188 2.699219 12.082031 2.882812 C 14.171875 3.066406 15.71875 4.90625 15.539062 6.992188 C 15.355469 9.082031 13.511719 10.628906 11.421875 10.445312 C 9.332031 10.261719 7.785156 8.421875 7.96875 6.332031 Z M 7.96875 6.332031 "/>
<path style=" stroke:none;fill-rule:evenodd;fill:rgb(9.803922%,41.960785%,14.117648%);fill-opacity:1;" d="M 12.398438 4.832031 C 12.398438 4.832031 12.269531 4.820312 12.140625 4.808594 C 11.238281 4.730469 11.238281 4.730469 11.238281 4.730469 C 11.128906 6 11.128906 6 11.128906 6 C 12.285156 6.097656 12.285156 6.097656 12.285156 6.097656 C 12.398438 4.832031 12.398438 4.832031 12.398438 4.832031 "/>
<path style=" stroke:none;fill-rule:evenodd;fill:rgb(9.803922%,41.960785%,14.117648%);fill-opacity:1;" d="M 11.871094 3.453125 C 11.613281 3.429688 11.332031 3.671875 11.296875 4.066406 C 11.238281 4.730469 11.238281 4.730469 11.238281 4.730469 C 12.140625 4.808594 12.140625 4.808594 12.140625 4.808594 C 12.269531 4.820312 12.398438 4.832031 12.398438 4.832031 C 12.457031 4.167969 12.457031 4.167969 12.457031 4.167969 C 12.492188 3.773438 12.257812 3.484375 11.871094 3.453125 "/>
<path style=" stroke:none;fill-rule:evenodd;fill:rgb(9.803922%,41.960785%,14.117648%);fill-opacity:1;" d="M 12.148438 7.699219 C 10.988281 7.597656 10.988281 7.597656 10.988281 7.597656 C 10.839844 9.285156 10.839844 9.285156 10.839844 9.285156 C 10.816406 9.542969 11.050781 9.824219 11.308594 9.847656 C 11.695312 9.882812 11.976562 9.644531 12 9.382812 C 12.148438 7.699219 12.148438 7.699219 12.148438 7.699219 "/>
<path style=" stroke:none;fill-rule:nonzero;fill:rgb(9.803922%,41.960785%,14.117648%);fill-opacity:1;" d="M 11.023438 7.210938 L 12.179688 7.3125 L 12.148438 7.699219 L 10.988281 7.597656 Z M 11.023438 7.210938 "/>
<path style=" stroke:none;fill-rule:nonzero;fill:rgb(9.803922%,41.960785%,14.117648%);fill-opacity:1;" d="M 11.023438 7.210938 L 12.179688 7.3125 L 12.148438 7.699219 L 10.988281 7.597656 Z M 11.023438 7.210938 "/>
<path style=" stroke:none;fill-rule:evenodd;fill:rgb(9.803922%,41.960785%,14.117648%);fill-opacity:1;" d="M 11.125 5.996094 C 9.050781 5.816406 9.050781 5.816406 9.050781 5.816406 C 8.792969 5.792969 8.511719 6.042969 8.476562 6.445312 C 8.453125 6.714844 8.6875 7.007812 8.945312 7.03125 C 11.019531 7.210938 11.019531 7.210938 11.019531 7.210938 C 11.125 5.996094 11.125 5.996094 11.125 5.996094 M 14.234375 6.269531 C 12.289062 6.097656 12.289062 6.097656 12.289062 6.097656 C 12.183594 7.3125 12.183594 7.3125 12.183594 7.3125 C 14.125 7.480469 14.125 7.480469 14.125 7.480469 C 14.515625 7.515625 14.796875 7.269531 14.820312 7 C 14.855469 6.59375 14.621094 6.304688 14.234375 6.269531 "/>
<path style=" stroke:none;fill-rule:nonzero;fill:rgb(9.803922%,41.960785%,14.117648%);fill-opacity:1;" d="M 11.128906 6 L 12.285156 6.097656 L 12.179688 7.3125 L 11.023438 7.210938 Z M 11.128906 6 "/>
<path style=" stroke:none;fill-rule:nonzero;fill:rgb(9.803922%,41.960785%,14.117648%);fill-opacity:1;" d="M 11.128906 6 L 12.285156 6.097656 L 12.179688 7.3125 L 11.023438 7.210938 Z M 11.128906 6 "/>
<path style=" stroke:none;fill-rule:evenodd;fill:rgb(74.901962%,74.901962%,74.901962%);fill-opacity:1;" d="M 10.839844 9.28125 C 11.296875 4.058594 11.296875 4.058594 11.296875 4.058594 C 11.332031 3.667969 11.613281 3.429688 11.871094 3.453125 C 12.257812 3.484375 12.492188 3.769531 12.457031 4.160156 C 12 9.382812 12 9.382812 12 9.382812 C 11.976562 9.640625 11.695312 9.882812 11.308594 9.847656 C 11.050781 9.824219 10.816406 9.542969 10.839844 9.28125 Z M 10.839844 9.28125 "/>
<path style=" stroke:none;fill-rule:evenodd;fill:rgb(74.901962%,74.901962%,74.901962%);fill-opacity:1;" d="M 9.054688 5.816406 C 14.234375 6.269531 14.234375 6.269531 14.234375 6.269531 C 14.621094 6.304688 14.859375 6.59375 14.824219 7 C 14.800781 7.269531 14.515625 7.515625 14.128906 7.480469 C 8.949219 7.03125 8.949219 7.03125 8.949219 7.03125 C 8.6875 7.007812 8.453125 6.714844 8.476562 6.445312 C 8.511719 6.042969 8.792969 5.792969 9.054688 5.816406 Z M 9.054688 5.816406 "/>
<path style=" stroke:none;fill-rule:evenodd;fill:rgb(74.901962%,74.901962%,74.901962%);fill-opacity:1;" d="M 9.234375 7.820312 C 13.238281 4.5 13.238281 4.5 13.238281 4.5 C 13.523438 4.261719 13.917969 4.296875 14.15625 4.582031 C 14.398438 4.863281 14.363281 5.253906 14.078125 5.492188 C 10.074219 8.8125 10.074219 8.8125 10.074219 8.8125 C 9.789062 9.046875 9.394531 9.011719 9.152344 8.730469 C 8.914062 8.445312 8.949219 8.058594 9.234375 7.820312 Z M 9.234375 7.820312 "/>
<path style=" stroke:none;fill-rule:evenodd;fill:rgb(74.901962%,74.901962%,74.901962%);fill-opacity:1;" d="M 10.472656 4.257812 C 13.839844 8.222656 13.839844 8.222656 13.839844 8.222656 C 14.078125 8.503906 14.046875 8.894531 13.757812 9.132812 C 13.472656 9.371094 13.078125 9.335938 12.839844 9.050781 C 9.472656 5.089844 9.472656 5.089844 9.472656 5.089844 C 9.230469 4.804688 9.265625 4.414062 9.550781 4.179688 C 9.835938 3.941406 10.234375 3.976562 10.472656 4.257812 Z M 10.472656 4.257812 "/>
<path style=" stroke:none;fill-rule:evenodd;fill:rgb(14.117648%,21.176471%,37.64706%);fill-opacity:1;" d="M 10.691406 6.570312 C 10.738281 6.023438 11.207031 5.617188 11.742188 5.664062 C 12.277344 5.710938 12.667969 6.191406 12.621094 6.738281 C 12.574219 7.289062 12.101562 7.695312 11.570312 7.648438 C 11.035156 7.601562 10.640625 7.117188 10.691406 6.570312 Z M 10.691406 6.570312 "/>
<path style=" stroke:none;fill-rule:evenodd;fill:rgb(74.901962%,74.901962%,74.901962%);fill-opacity:1;" d="M 11.683594 5.6875 C 12.335938 5.746094 12.695312 6.171875 12.636719 6.824219 C 12.59375 7.347656 12.167969 7.703125 11.511719 7.644531 C 10.992188 7.601562 10.632812 7.175781 10.679688 6.652344 C 10.734375 6 11.164062 5.644531 11.683594 5.6875 M 11.765625 4.777344 C 10.71875 4.683594 9.738281 5.386719 9.632812 6.5625 C 9.542969 7.605469 10.378906 8.597656 11.421875 8.691406 C 12.597656 8.792969 13.460938 7.949219 13.550781 6.90625 C 13.65625 5.730469 12.941406 4.878906 11.765625 4.777344 Z M 11.765625 4.777344 "/>
<path style=" stroke:none;fill-rule:evenodd;fill:rgb(26.274511%,67.450982%,100%);fill-opacity:1;" d="M 6.152344 6.09375 C 6.152344 6.09375 6.023438 6.117188 5.894531 6.140625 C 5.007812 6.308594 5.007812 6.308594 5.007812 6.308594 C 5.242188 7.558594 5.242188 7.558594 5.242188 7.558594 C 6.386719 7.34375 6.386719 7.34375 6.386719 7.34375 C 6.152344 6.09375 6.152344 6.09375 6.152344 6.09375 "/>
<path style=" stroke:none;fill-rule:evenodd;fill:rgb(26.274511%,67.450982%,100%);fill-opacity:1;" d="M 5.269531 4.910156 C 5.015625 4.957031 4.808594 5.265625 4.882812 5.65625 C 5.007812 6.308594 5.007812 6.308594 5.007812 6.308594 C 5.894531 6.140625 5.894531 6.140625 5.894531 6.140625 C 6.023438 6.117188 6.152344 6.09375 6.152344 6.09375 C 6.027344 5.441406 6.027344 5.441406 6.027344 5.441406 C 5.953125 5.050781 5.648438 4.835938 5.269531 4.910156 "/>
<path style=" stroke:none;fill-rule:evenodd;fill:rgb(26.274511%,67.450982%,100%);fill-opacity:1;" d="M 6.683594 8.921875 C 5.539062 9.136719 5.539062 9.136719 5.539062 9.136719 C 5.855469 10.800781 5.855469 10.800781 5.855469 10.800781 C 5.902344 11.058594 6.203125 11.265625 6.460938 11.21875 C 6.839844 11.144531 7.046875 10.84375 6.996094 10.585938 C 6.683594 8.921875 6.683594 8.921875 6.683594 8.921875 "/>
<path style=" stroke:none;fill-rule:nonzero;fill:rgb(26.274511%,67.450982%,100%);fill-opacity:1;" d="M 5.46875 8.757812 L 6.613281 8.542969 L 6.683594 8.921875 L 5.539062 9.136719 Z M 5.46875 8.757812 "/>
<path style=" stroke:none;fill-rule:nonzero;fill:rgb(26.274511%,67.450982%,100%);fill-opacity:1;" d="M 5.46875 8.757812 L 6.613281 8.542969 L 6.683594 8.921875 L 5.539062 9.136719 Z M 5.46875 8.757812 "/>
<path style=" stroke:none;fill-rule:evenodd;fill:rgb(26.274511%,67.450982%,100%);fill-opacity:1;" d="M 5.238281 7.5625 C 3.195312 7.945312 3.195312 7.945312 3.195312 7.945312 C 2.941406 7.992188 2.734375 8.308594 2.808594 8.707031 C 2.859375 8.972656 3.164062 9.191406 3.421875 9.140625 C 5.464844 8.757812 5.464844 8.757812 5.464844 8.757812 C 5.238281 7.5625 5.238281 7.5625 5.238281 7.5625 M 8.304688 6.984375 C 6.390625 7.34375 6.390625 7.34375 6.390625 7.34375 C 6.617188 8.539062 6.617188 8.539062 6.617188 8.539062 C 8.53125 8.179688 8.53125 8.179688 8.53125 8.179688 C 8.914062 8.109375 9.121094 7.792969 9.070312 7.527344 C 8.996094 7.128906 8.691406 6.910156 8.304688 6.984375 "/>
<path style=" stroke:none;fill-rule:nonzero;fill:rgb(26.274511%,67.450982%,100%);fill-opacity:1;" d="M 5.242188 7.558594 L 6.386719 7.34375 L 6.613281 8.542969 L 5.46875 8.757812 Z M 5.242188 7.558594 "/>
<path style=" stroke:none;fill-rule:nonzero;fill:rgb(26.274511%,67.450982%,100%);fill-opacity:1;" d="M 5.242188 7.558594 L 6.386719 7.34375 L 6.613281 8.542969 L 5.46875 8.757812 Z M 5.242188 7.558594 "/>
<path style=" stroke:none;fill-rule:evenodd;fill:rgb(26.274511%,67.450982%,100%);fill-opacity:1;" d="M 5.855469 10.796875 C 4.882812 5.648438 4.882812 5.648438 4.882812 5.648438 C 4.808594 5.261719 5.015625 4.957031 5.269531 4.910156 C 5.648438 4.835938 5.953125 5.046875 6.023438 5.433594 C 6.996094 10.582031 6.996094 10.582031 6.996094 10.582031 C 7.046875 10.839844 6.839844 11.144531 6.460938 11.21875 C 6.203125 11.265625 5.902344 11.054688 5.855469 10.796875 Z M 5.855469 10.796875 "/>
<path style=" stroke:none;fill-rule:evenodd;fill:rgb(26.274511%,67.450982%,100%);fill-opacity:1;" d="M 3.195312 7.945312 C 8.308594 6.984375 8.308594 6.984375 8.308594 6.984375 C 8.691406 6.910156 8.996094 7.128906 9.070312 7.527344 C 9.121094 7.792969 8.917969 8.109375 8.535156 8.179688 C 3.421875 9.140625 3.421875 9.140625 3.421875 9.140625 C 3.167969 9.191406 2.859375 8.972656 2.8125 8.707031 C 2.734375 8.308594 2.941406 7.992188 3.195312 7.945312 Z M 3.195312 7.945312 "/>
<path style=" stroke:none;fill-rule:evenodd;fill:rgb(26.274511%,67.450982%,100%);fill-opacity:1;" d="M 3.914062 9.824219 C 6.867188 5.546875 6.867188 5.546875 6.867188 5.546875 C 7.078125 5.242188 7.46875 5.167969 7.777344 5.378906 C 8.085938 5.585938 8.160156 5.96875 7.949219 6.277344 C 4.988281 10.554688 4.988281 10.554688 4.988281 10.554688 C 4.777344 10.859375 4.390625 10.933594 4.082031 10.722656 C 3.773438 10.515625 3.699219 10.132812 3.914062 9.824219 Z M 3.914062 9.824219 "/>
<path style=" stroke:none;fill-rule:evenodd;fill:rgb(26.274511%,67.450982%,100%);fill-opacity:1;" d="M 4.140625 6.0625 C 8.453125 8.96875 8.453125 8.96875 8.453125 8.96875 C 8.761719 9.179688 8.835938 9.5625 8.625 9.867188 C 8.414062 10.171875 8.023438 10.246094 7.714844 10.039062 C 3.402344 7.132812 3.402344 7.132812 3.402344 7.132812 C 3.09375 6.925781 3.023438 6.539062 3.234375 6.234375 C 3.445312 5.925781 3.835938 5.855469 4.140625 6.0625 Z M 4.140625 6.0625 "/>
<path style=" stroke:none;fill-rule:evenodd;fill:rgb(14.117648%,21.176471%,37.64706%);fill-opacity:1;" d="M 4.976562 8.230469 C 4.875 7.691406 5.21875 7.171875 5.742188 7.070312 C 6.269531 6.972656 6.78125 7.332031 6.882812 7.871094 C 6.984375 8.414062 6.640625 8.929688 6.113281 9.03125 C 5.585938 9.128906 5.078125 8.769531 4.976562 8.230469 Z M 4.976562 8.230469 "/>
<path style=" stroke:none;fill-rule:evenodd;fill:rgb(26.274511%,67.450982%,100%);fill-opacity:1;" d="M 5.695312 7.113281 C 6.339844 6.992188 6.800781 7.304688 6.921875 7.949219 C 7.019531 8.464844 6.703125 8.921875 6.058594 9.042969 C 5.542969 9.140625 5.085938 8.828125 4.988281 8.3125 C 4.867188 7.667969 5.179688 7.210938 5.695312 7.113281 M 5.527344 6.210938 C 4.496094 6.40625 3.738281 7.347656 3.957031 8.507812 C 4.152344 9.535156 5.222656 10.269531 6.253906 10.074219 C 7.414062 9.855469 8.015625 8.808594 7.824219 7.777344 C 7.605469 6.621094 6.683594 5.992188 5.527344 6.210938 Z M 5.527344 6.210938 "/>
<path style=" stroke:none;fill-rule:evenodd;fill:rgb(100%,24.705882%,100%);fill-opacity:1;" d="M 11.425781 11.355469 C 11.425781 11.355469 11.324219 11.277344 11.222656 11.195312 C 10.515625 10.632812 10.515625 10.632812 10.515625 10.632812 C 9.722656 11.628906 9.722656 11.628906 9.722656 11.628906 C 10.632812 12.351562 10.632812 12.351562 10.632812 12.351562 C 11.425781 11.355469 11.425781 11.355469 11.425781 11.355469 "/>
<path style=" stroke:none;fill-rule:evenodd;fill:rgb(100%,24.705882%,100%);fill-opacity:1;" d="M 11.746094 9.914062 C 11.546875 9.753906 11.179688 9.800781 10.929688 10.113281 C 10.515625 10.632812 10.515625 10.632812 10.515625 10.632812 C 11.222656 11.195312 11.222656 11.195312 11.222656 11.195312 C 11.324219 11.277344 11.425781 11.355469 11.425781 11.355469 C 11.839844 10.835938 11.839844 10.835938 11.839844 10.835938 C 12.089844 10.523438 12.050781 10.15625 11.746094 9.914062 "/>
<path style=" stroke:none;fill-rule:evenodd;fill:rgb(100%,24.705882%,100%);fill-opacity:1;" d="M 9.636719 13.609375 C 8.722656 12.886719 8.722656 12.886719 8.722656 12.886719 C 7.667969 14.210938 7.667969 14.210938 7.667969 14.210938 C 7.507812 14.417969 7.546875 14.78125 7.75 14.941406 C 8.054688 15.183594 8.417969 15.140625 8.582031 14.933594 C 9.636719 13.609375 9.636719 13.609375 9.636719 13.609375 "/>
<path style=" stroke:none;fill-rule:nonzero;fill:rgb(100%,24.705882%,100%);fill-opacity:1;" d="M 8.964844 12.582031 L 9.875 13.304688 L 9.636719 13.609375 L 8.722656 12.886719 Z M 8.964844 12.582031 "/>
<path style=" stroke:none;fill-rule:nonzero;fill:rgb(100%,24.705882%,100%);fill-opacity:1;" d="M 8.964844 12.582031 L 9.875 13.304688 L 9.636719 13.609375 L 8.722656 12.886719 Z M 8.964844 12.582031 "/>
<path style=" stroke:none;fill-rule:evenodd;fill:rgb(100%,24.705882%,100%);fill-opacity:1;" d="M 9.71875 11.628906 C 8.09375 10.335938 8.09375 10.335938 8.09375 10.335938 C 7.886719 10.171875 7.515625 10.222656 7.265625 10.542969 C 7.09375 10.753906 7.128906 11.125 7.335938 11.289062 C 8.960938 12.582031 8.960938 12.582031 8.960938 12.582031 C 9.71875 11.628906 9.71875 11.628906 9.71875 11.628906 M 12.164062 13.566406 C 10.636719 12.355469 10.636719 12.355469 10.636719 12.355469 C 9.878906 13.308594 9.878906 13.308594 9.878906 13.308594 C 11.40625 14.519531 11.40625 14.519531 11.40625 14.519531 C 11.710938 14.761719 12.082031 14.714844 12.25 14.5 C 12.503906 14.183594 12.46875 13.808594 12.164062 13.566406 "/>
<path style=" stroke:none;fill-rule:nonzero;fill:rgb(100%,24.705882%,100%);fill-opacity:1;" d="M 9.722656 11.628906 L 10.632812 12.351562 L 9.875 13.304688 L 8.964844 12.582031 Z M 9.722656 11.628906 "/>
<path style=" stroke:none;fill-rule:nonzero;fill:rgb(100%,24.705882%,100%);fill-opacity:1;" d="M 9.722656 11.628906 L 10.632812 12.351562 L 9.875 13.304688 L 8.964844 12.582031 Z M 9.722656 11.628906 "/>
<path style=" stroke:none;fill-rule:evenodd;fill:rgb(100%,24.705882%,100%);fill-opacity:1;" d="M 7.671875 14.210938 C 10.933594 10.105469 10.933594 10.105469 10.933594 10.105469 C 11.179688 9.796875 11.546875 9.753906 11.746094 9.914062 C 12.050781 10.15625 12.089844 10.523438 11.847656 10.828125 C 8.582031 14.933594 8.582031 14.933594 8.582031 14.933594 C 8.417969 15.136719 8.054688 15.183594 7.75 14.941406 C 7.546875 14.78125 7.507812 14.414062 7.671875 14.210938 Z M 7.671875 14.210938 "/>
<path style=" stroke:none;fill-rule:evenodd;fill:rgb(100%,24.705882%,100%);fill-opacity:1;" d="M 8.09375 10.335938 C 12.164062 13.566406 12.164062 13.566406 12.164062 13.566406 C 12.46875 13.8125 12.503906 14.183594 12.253906 14.503906 C 12.085938 14.714844 11.710938 14.765625 11.40625 14.523438 C 7.335938 11.289062 7.335938 11.289062 7.335938 11.289062 C 7.132812 11.128906 7.097656 10.753906 7.265625 10.542969 C 7.519531 10.222656 7.890625 10.175781 8.09375 10.335938 Z M 8.09375 10.335938 "/>
<path style=" stroke:none;fill-rule:evenodd;fill:rgb(100%,24.705882%,100%);fill-opacity:1;" d="M 7.136719 12.105469 C 12.308594 11.542969 12.308594 11.542969 12.308594 11.542969 C 12.679688 11.503906 12.988281 11.75 13.035156 12.117188 C 13.078125 12.488281 12.832031 12.792969 12.464844 12.832031 C 7.292969 13.394531 7.292969 13.394531 7.292969 13.394531 C 6.921875 13.4375 6.613281 13.191406 6.570312 12.820312 C 6.523438 12.453125 6.769531 12.144531 7.136719 12.105469 Z M 7.136719 12.105469 "/>
<path style=" stroke:none;fill-rule:evenodd;fill:rgb(100%,24.705882%,100%);fill-opacity:1;" d="M 10.136719 9.816406 C 10.757812 14.980469 10.757812 14.980469 10.757812 14.980469 C 10.800781 15.347656 10.558594 15.65625 10.1875 15.695312 C 9.820312 15.734375 9.507812 15.488281 9.464844 15.121094 C 8.84375 9.960938 8.84375 9.960938 8.84375 9.960938 C 8.800781 9.589844 9.042969 9.285156 9.414062 9.242188 C 9.785156 9.203125 10.09375 9.449219 10.136719 9.816406 Z M 10.136719 9.816406 "/>
<path style=" stroke:none;fill-rule:evenodd;fill:rgb(14.117648%,21.176471%,37.64706%);fill-opacity:1;" d="M 9.042969 11.867188 C 9.382812 11.4375 10.003906 11.355469 10.421875 11.6875 C 10.839844 12.023438 10.902344 12.640625 10.558594 13.070312 C 10.21875 13.503906 9.597656 13.582031 9.179688 13.25 C 8.761719 12.917969 8.699219 12.296875 9.042969 11.867188 Z M 9.042969 11.867188 "/>
<path style=" stroke:none;fill-rule:evenodd;fill:rgb(100%,24.705882%,100%);fill-opacity:1;" d="M 10.359375 11.679688 C 10.871094 12.085938 10.933594 12.640625 10.527344 13.152344 C 10.199219 13.5625 9.648438 13.625 9.132812 13.21875 C 8.722656 12.890625 8.660156 12.339844 8.988281 11.929688 C 9.394531 11.417969 9.949219 11.355469 10.359375 11.679688 M 10.929688 10.960938 C 10.109375 10.308594 8.898438 10.355469 8.167969 11.277344 C 7.511719 12.097656 7.660156 13.386719 8.480469 14.039062 C 9.40625 14.773438 10.59375 14.542969 11.246094 13.722656 C 11.980469 12.800781 11.851562 11.695312 10.929688 10.960938 Z M 10.929688 10.960938 "/>
</g>
</svg>
