<?xml version="1.0" encoding="UTF-8"?>
<svg xmlns="http://www.w3.org/2000/svg" xmlns:xlink="http://www.w3.org/1999/xlink" width="px" height="18px" viewBox="0 0 18 17" version="1.1">
<g id="surface1">
<path style=" stroke:none;fill-rule:evenodd;fill:rgb(14.117648%,21.176471%,37.64706%);fill-opacity:1;" d="M 0.445312 8.585938 C 0.445312 4.023438 4.3125 0.328125 9.082031 0.328125 C 13.847656 0.328125 17.714844 4.023438 17.714844 8.585938 C 17.714844 13.148438 13.847656 16.84375 9.082031 16.84375 C 4.3125 16.84375 0.445312 13.148438 0.445312 8.585938 Z M 0.445312 8.585938 "/>
<path style=" stroke:none;fill-rule:evenodd;fill:rgb(26.274511%,67.450982%,100%);fill-opacity:1;" d="M 9.109375 1.925781 C 9.054688 1.925781 9.054688 1.925781 9.054688 1.925781 C 5.238281 1.925781 2.117188 4.9375 2.117188 8.558594 C 2.117188 12.234375 5.238281 15.246094 9.054688 15.246094 C 9.109375 15.246094 9.109375 15.246094 9.109375 15.246094 C 12.867188 15.246094 15.988281 12.234375 15.988281 8.558594 C 15.988281 4.9375 12.867188 1.925781 9.109375 1.925781 Z M 14.3125 5.214844 C 14.890625 6.050781 15.292969 7.21875 15.351562 8.28125 C 12.808594 8.28125 12.808594 8.28125 12.808594 8.28125 C 12.808594 7.609375 12.695312 6.609375 12.519531 5.882812 C 13.15625 5.714844 13.792969 5.492188 14.3125 5.214844 Z M 13.851562 4.65625 C 13.386719 4.878906 12.867188 5.101562 12.347656 5.269531 C 12.058594 4.265625 11.597656 3.488281 11.132812 2.929688 C 12.175781 3.265625 13.097656 3.878906 13.851562 4.65625 Z M 9.457031 2.652344 C 10.210938 2.875 11.074219 3.933594 11.539062 5.4375 C 10.902344 5.550781 10.09375 5.605469 9.457031 5.660156 Z M 9.457031 6.328125 C 10.152344 6.328125 11.074219 6.21875 11.769531 6.050781 C 11.941406 6.71875 12.058594 7.667969 12.058594 8.28125 C 9.457031 8.28125 9.457031 8.28125 9.457031 8.28125 Z M 9.457031 9.003906 C 12.058594 9.003906 12.058594 9.003906 12.058594 9.003906 C 12.058594 9.5625 11.941406 10.507812 11.769531 11.175781 C 11.074219 11.011719 10.152344 10.84375 9.457031 10.84375 Z M 6.972656 2.929688 C 6.511719 3.488281 6.046875 4.265625 5.757812 5.269531 C 5.238281 5.101562 4.71875 4.878906 4.257812 4.65625 C 5.007812 3.878906 5.933594 3.265625 6.972656 2.929688 Z M 3.851562 5.214844 C 4.316406 5.492188 4.949219 5.714844 5.585938 5.882812 C 5.414062 6.609375 5.296875 7.609375 5.296875 8.28125 C 2.753906 8.28125 2.753906 8.28125 2.753906 8.28125 C 2.8125 7.21875 3.21875 6.050781 3.851562 5.214844 Z M 3.851562 12.011719 C 3.21875 11.175781 2.8125 10.0625 2.753906 9.003906 C 5.296875 9.003906 5.296875 9.003906 5.296875 9.003906 C 5.296875 9.5625 5.414062 10.675781 5.585938 11.398438 C 4.949219 11.566406 4.316406 11.734375 3.851562 12.011719 Z M 4.257812 12.515625 C 4.71875 12.234375 5.238281 12.070312 5.757812 11.902344 C 6.046875 12.847656 6.511719 13.683594 6.972656 14.242188 C 5.933594 13.90625 5.007812 13.292969 4.257812 12.515625 Z M 8.648438 14.519531 C 7.898438 14.242188 7.03125 13.238281 6.570312 11.734375 C 7.203125 11.621094 8.011719 11.511719 8.648438 11.511719 Z M 8.648438 10.84375 C 7.957031 10.84375 7.03125 11.011719 6.335938 11.175781 C 6.164062 10.507812 6.046875 9.5625 6.046875 9.003906 C 8.648438 9.003906 8.648438 9.003906 8.648438 9.003906 Z M 8.648438 8.28125 C 6.046875 8.28125 6.046875 8.28125 6.046875 8.28125 C 6.046875 7.667969 6.164062 6.71875 6.335938 6.050781 C 7.03125 6.21875 7.957031 6.328125 8.648438 6.328125 Z M 8.648438 5.660156 C 8.011719 5.605469 7.203125 5.550781 6.570312 5.4375 C 7.03125 3.933594 7.898438 2.875 8.648438 2.652344 Z M 9.457031 14.519531 C 9.457031 11.511719 9.457031 11.511719 9.457031 11.511719 C 10.09375 11.511719 10.902344 11.621094 11.539062 11.734375 C 11.074219 13.238281 10.210938 14.242188 9.457031 14.519531 Z M 11.132812 14.242188 C 11.597656 13.683594 12.058594 12.847656 12.347656 11.902344 C 12.867188 12.070312 13.386719 12.234375 13.851562 12.515625 C 13.097656 13.292969 12.175781 13.90625 11.132812 14.242188 Z M 14.3125 12.011719 C 13.792969 11.734375 13.15625 11.566406 12.519531 11.398438 C 12.695312 10.675781 12.808594 9.5625 12.808594 9.003906 C 15.351562 9.003906 15.351562 9.003906 15.351562 9.003906 C 15.292969 10.0625 14.890625 11.175781 14.3125 12.011719 Z M 14.3125 12.011719 "/>
</g>
</svg>
