<svg width="76" height="76" xmlns="http://www.w3.org/2000/svg" xmlns:xlink="http://www.w3.org/1999/xlink" xml:space="preserve" overflow="hidden"><g transform="translate(-152 -256)"><g><g><g><g><path d="M300 213.438 300 217.578 296.875 217.578 296.875 213.438C295.078 212.812 293.75 211.094 293.75 208.984 293.75 206.406 295.859 204.297 298.438 204.297 301.016 204.297 303.125 206.406 303.125 208.984 303.125 211.016 301.797 212.734 300 213.438ZM286.719 184.766C286.719 178.281 291.953 173.047 298.438 173.047 304.922 173.047 310.156 178.281 310.156 184.766L310.156 193.438 298.438 192.578 286.719 193.438 286.719 184.766ZM314.844 193.75 314.844 184.766C314.844 175.703 307.5 168.359 298.438 168.359 289.375 168.359 282.031 175.703 282.031 184.766L282.031 193.75 276.562 194.141 276.562 223.828 298.438 225.391 320.312 223.828 320.312 194.141 314.844 193.75Z" fill="#243660" fill-rule="nonzero" fill-opacity="1" transform="matrix(1.00289 0 0 1 -108.907 96.625)"/></g></g></g></g></g></svg>