<?xml version="1.0" encoding="UTF-8"?>
<svg xmlns="http://www.w3.org/2000/svg" xmlns:xlink="http://www.w3.org/1999/xlink" width="px" height="18px" viewBox="0 0 18 18" version="1.1">
<g id="surface1">
<path style=" stroke:none;fill-rule:nonzero;fill:rgb(14.117648%,21.176471%,37.64706%);fill-opacity:1;" d="M 9.464844 12.804688 L 9.464844 13.785156 L 8.722656 13.785156 L 8.722656 12.804688 C 8.296875 12.65625 7.980469 12.25 7.980469 11.75 C 7.980469 11.140625 8.480469 10.640625 9.09375 10.640625 C 9.707031 10.640625 10.207031 11.140625 10.207031 11.75 C 10.207031 12.230469 9.890625 12.636719 9.464844 12.804688 Z M 6.308594 6.011719 C 6.308594 4.476562 7.554688 3.238281 9.09375 3.238281 C 10.632812 3.238281 11.875 4.476562 11.875 6.011719 L 11.875 8.066406 L 9.09375 7.863281 L 6.308594 8.066406 Z M 12.988281 8.140625 L 12.988281 6.011719 C 12.988281 3.867188 11.246094 2.128906 9.09375 2.128906 C 6.941406 2.128906 5.195312 3.867188 5.195312 6.011719 L 5.195312 8.140625 L 3.898438 8.234375 L 3.898438 15.265625 L 9.09375 15.636719 L 14.289062 15.265625 L 14.289062 8.234375 Z M 12.988281 8.140625 "/>
</g>
</svg>
