<svg width="auto" height="18px" viewBox="0 0 76 76" xmlns="http://www.w3.org/2000/svg" xmlns:xlink="http://www.w3.org/1999/xlink" xml:space="preserve" overflow="hidden">
  <g transform="translate(-152 -396)">
    <g>
      <g>
        <g>
          <path d="M235.938 195.312 224.219 196.172 224.219 182.031C224.219 175.547 229.453 170.312 235.938 170.312 242.422 170.312 247.656 175.547 247.656 182.031L247.656 186.719 252.344 186.719 252.344 182.031C252.344 172.969 245 165.625 235.938 165.625 226.875 165.625 219.531 172.969 219.531 182.031L219.531 196.484 214.062 196.875 214.062 226.562 235.938 228.125 257.812 226.562 257.812 196.875 235.938 195.312ZM237.5 216.172 237.5 220.312 234.375 220.312 234.375 216.172C232.578 215.547 231.25 213.828 231.25 211.719 231.25 209.141 233.359 207.031 235.938 207.031 238.516 207.031 240.625 209.141 240.625 211.719 240.625 213.75 239.297 215.469 237.5 216.172Z" fill="#243660" fill-rule="nonzero" fill-opacity="1" transform="matrix(1.00289 0 0 1 -46.2268 237.625)"/>
        </g>
      </g>
    </g>
  </g>
</svg>
