<?xml version="1.0" encoding="UTF-8"?>
<svg id="Ebene_1" data-name="Ebene 1" xmlns="http://www.w3.org/2000/svg" version="1.1" viewBox="0 0 992.5964 125.4916">
  <defs>
    <style>
      .cls-1 {
        fill: #fff;
        stroke-width: 0px;
      }
    </style>
  </defs>
  <path class="cls-1" d="M0,2.7398269h43.4639362l29.0844752,91.2461891h.1670829L101.7172892,2.7398269h43.5466163v119.9999436h-27.589342v-52.5208607l.4978036-38.6426483h-.1653604l-30.7484138,91.163509h-29.2532805L27.1742186,31.5762615h-.1653604l.4978036,38.6426483v52.5208607H0V2.7398269ZM165.2642275,2.7398269h29.1688779v119.9999436h-29.1688779V2.7398269ZM244.8799922,122.5346078c-6.8435072-1.966238-12.6466223-4.7084639-17.4110675-8.227539-4.7644453-3.5173526-8.5591209-7.6728928-11.384027-12.4648981-2.8249061-4.7920053-4.7093251-10.0413354-5.6515347-15.7479902h30.2488877c.6648864,2.9368688,1.7586763,5.5542132,3.2830921,7.8528944,1.5226933,2.2995425,3.4760125,4.1968803,5.8582351,5.6928748,2.3822226,1.4951332,5.2071287,2.6173444,8.4764408,3.3657723,3.269312.7475666,6.952025,1.1213499,11.0533063,1.1213499,2.4373428,0,4.7231052-.1102402,6.8555648-.3324432,2.1324596-.2204805,4.1133389-.567565,5.9426378-1.0386697,1.8275764-.4702435,3.4760125-1.0662298,4.9435857-1.7870976,1.4675732-.7191453,2.7146659-1.5786747,3.7395556-2.5760043s1.8155189-2.1315983,2.3684426-3.4071123c.5546462-1.2737915.8319693-2.7138046.8319693-4.3209006v-.0835414c0-2.4373428-.4995261-4.4871222-1.4968557-6.1493383-.9956071-1.6622161-2.4924629-3.0746691-4.4871222-4.2382204-1.9946593-1.1635513-4.404442-2.1462396-7.2293481-2.9506489-2.8249061-.8018255-6.0666581-1.508052-9.7235335-2.1186796l-18.780458-3.4906538c-6.0959406-1.1075699-11.6079525-2.6449044-16.5377581-4.6120037-4.9315281-1.9653767-9.0999871-4.4457821-12.5070995-7.437771-3.4071123-2.9911277-5.9977579-6.4947002-7.7702142-10.5124402-1.7741788-4.0160174-2.6595457-8.6013223-2.6595457-13.7533309v-.1662216c0-3.5449126.5822063-6.8693448,1.7448963-9.9724352,1.1644125-3.1022292,2.8386861-5.9693366,5.0279883-8.6013223,2.1875797-2.6302632,4.8333454-4.9573657,7.9372971-6.9804463,3.1022292-2.0213581,6.6195818-3.7395556,10.5537802-5.1520086,3.932476-1.4133143,8.1853376-2.5062429,12.75514-3.2830921,4.5715249-.7751267,9.4048703-1.16269,14.5017588-1.16269,7.8115543,0,14.8204219.8302468,21.0248803,2.4924629,6.2044584,1.6622161,11.57867,4.0866401,16.1226347,7.2715494,4.5422423,3.1866319,8.1715576,7.0226476,10.8862235,11.5097698,2.7146659,4.4879834,4.5422423,9.5857332,5.4844518,15.2906655h-29.9991246c-.7768492-2.8249061-1.9119791-5.1795687-3.4071123-7.0631265-1.4968557-1.8826966-3.2830921-3.4071123-5.3604316-4.5706636s-4.4750646-2.0222194-7.188008-2.5768656c-2.7163884-.5529237-5.6808172-.8302468-8.8932867-.8302468-2.1048995,0-4.1133389.1111015-6.0235955.3324432-1.9119791.2213417-3.6706554.5537849-5.2777514.9964684-1.607096.444406-3.0884492,1.0119709-4.4457821,1.7035562-1.3590554.694169-2.4924629,1.5106358-3.4071123,2.451984-.9146495.9430708-1.634656,2.0230806-2.1617422,3.2408907-.5270861,1.2195326-.7889067,2.5493055-.7889067,3.9893186v.1662216c0,1.8275764.3600033,3.4768737,1.0800098,4.9444469.7200066,1.4684344,1.8413565,2.7706472,3.3657723,3.9057772,1.5226933,1.1359912,3.4484524,2.1057608,5.7755549,2.9084475,2.3271025.803548,5.0417684,1.5097745,8.1439976,2.1195408l18.6995003,3.4897925c7.1466679,1.2195326,13.4613665,2.7844273,18.9458183,4.6955451,5.4861743,1.9111179,10.1110968,4.2795605,13.8782124,7.1053278,3.7671156,2.8249061,6.6075242,6.2053196,8.5195034,10.1386568,1.9102566,3.9341985,2.8662462,8.6151023,2.8662462,14.044434v.2489018c0,6.039098-1.3159928,11.3848883-3.9479785,16.0390933-2.6319857,4.6533438-6.3715412,8.5875423-11.2186667,11.8000117-4.8488479,3.2141919-10.6089004,5.6239746-17.2853248,7.2302093s-14.0849129,2.4097827-22.2289104,2.4097827c-8.9208467,0-16.8013012-.9844109-23.643086-2.9497876ZM365.6507165,122.5367972c-6.8435072-1.966238-12.6466223-4.7084639-17.4110675-8.227539-4.7644453-3.5173526-8.5591209-7.6728928-11.384027-12.4648981-2.8249061-4.7920053-4.7093251-10.0413354-5.6515347-15.7479902h30.2488877c.6648864,2.9368688,1.7586763,5.5542132,3.2830921,7.8528944,1.5226933,2.2995425,3.4760125,4.1968803,5.8582351,5.6928748,2.3822226,1.4951332,5.2071287,2.6173444,8.4764408,3.3657723,3.269312.7475666,6.952025,1.1213499,11.0533063,1.1213499,2.4373428,0,4.7231052-.1102402,6.8555648-.3324432,2.1324596-.2204805,4.1133389-.567565,5.9426378-1.0386697,1.8275764-.4702435,3.4760125-1.0662298,4.9435857-1.7870976,1.4675732-.7191453,2.7146659-1.5786747,3.7395556-2.5760043s1.8155189-2.1315983,2.3684426-3.4071123c.5546462-1.2737915.8319693-2.7138046.8319693-4.3209006v-.0835414c0-2.4373428-.4995261-4.4871222-1.4968557-6.1493383-.9956071-1.6622161-2.4924629-3.0746691-4.4871222-4.2382204-1.9946593-1.1635513-4.404442-2.1462396-7.2293481-2.9506489-2.8249061-.8018255-6.0666581-1.508052-9.7235335-2.1186796l-18.780458-3.4906538c-6.0959406-1.1075699-11.6079525-2.6449044-16.5377581-4.6120037-4.9315281-1.9653767-9.0999871-4.4457821-12.5070995-7.437771-3.4071123-2.9911277-5.9977579-6.4947002-7.7702142-10.5124402-1.7741788-4.0160174-2.6595457-8.6013223-2.6595457-13.7533309v-.1662216c0-3.5449126.5822063-6.8693448,1.7448963-9.9724352,1.1644125-3.1022292,2.8386861-5.9693366,5.0279883-8.6013223,2.1875797-2.6302632,4.8333454-4.9573657,7.9372971-6.9804463,3.1022292-2.0213581,6.6195818-3.7395556,10.5537802-5.1520086,3.932476-1.4133143,8.1853376-2.5062429,12.75514-3.2830921C376.2044968.3897527,381.0378422.0021894,386.1347307.0021894c7.8115543,0,14.8204219.8302468,21.0248803,2.4924629,6.2044584,1.6622161,11.57867,4.0866401,16.1226347,7.2715494,4.5422423,3.1866319,8.1715576,7.0226476,10.8862235,11.5097698,2.7146659,4.4879834,4.5422423,9.5857332,5.4844518,15.2906655h-29.9991246c-.7768492-2.8249061-1.9119791-5.1795687-3.4071123-7.0631265-1.4968557-1.8826966-3.2830921-3.4071123-5.3604316-4.5706636s-4.4750646-2.0222194-7.188008-2.5768656c-2.7163884-.5529237-5.6808172-.8302468-8.8932867-.8302468-2.1048995,0-4.1133389.1111015-6.0235955.3324432-1.9119791.2213417-3.6706554.5537849-5.2777514.9964684-1.607096.444406-3.0884492,1.0119709-4.4457821,1.7035562-1.3590554.694169-2.4924629,1.5106358-3.4071123,2.451984-.9146495.9430708-1.634656,2.0230806-2.1617422,3.2408907-.5270861,1.2195326-.7889067,2.5493055-.7889067,3.9893186v.1662216c0,1.8275764.3600033,3.4768737,1.0800098,4.9444469.7200066,1.4684344,1.8413565,2.7706472,3.3657723,3.9057772,1.5226933,1.1359912,3.4484524,2.1057608,5.7755549,2.9084475,2.3271025.803548,5.0417684,1.5097745,8.1439976,2.1195408l18.6995003,3.4897925c7.1466679,1.2195326,13.4613665,2.7844273,18.9458183,4.6955451,5.4861743,1.9111179,10.1110968,4.2795605,13.8782124,7.1053278,3.7671156,2.8249061,6.6075242,6.2053196,8.5195034,10.1386568,1.9102566,3.9341985,2.8662462,8.6151023,2.8662462,14.044434v.2489018c0,6.039098-1.3159928,11.3848883-3.9479785,16.0390933-2.6319857,4.6533438-6.3715412,8.5875423-11.2186667,11.8000117-4.8488479,3.2141919-10.6089004,5.6239746-17.2853248,7.2302093-6.6764244,1.6062347-14.0849129,2.4097827-22.2289104,2.4097827-8.9208467,0-16.8013012-.9844109-23.643086-2.9497876ZM459.9749404,2.7472174h29.1688779v119.9999436h-29.1688779V2.7472174ZM554.3405044,123.4969407c-6.039098-1.3289116-11.59245-3.2822308-16.6617784-5.8582351-5.0693284-2.5760043-9.6270732-5.7057935-13.6697895-9.3910902-4.0444387-3.6835742-7.4670536-7.8382531-10.2626771-12.4648981-2.7990685-4.6249225-4.9332506-9.7088922-6.3991013-15.2493254-1.4692957-5.5395719-2.2030822-11.4684297-2.2030822-17.7839896v-.1662216c0-9.4737704,1.6484361-18.0466714,4.9453082-25.7204254,3.2951496-7.6728928,7.9493546-14.2519957,13.9608926-19.7364475,6.0098155-5.4853131,13.213326-9.7088922,21.6070866-12.6733211C554.0494012,1.489419,563.3440313.0072046,573.5378082.0072046c6.7591046,0,13.1582059.6640252,19.1973039,1.993798,6.0373755,1.3297729,11.59245,3.2701733,16.6617784,5.8177563,5.0693284,2.5484442,9.5977907,5.6506734,13.5871093,9.3075488,3.9893186,3.6560141,7.3964309,7.7986356,10.221337,12.423558,2.8249061,4.626645,4.9711457,9.7226722,6.4404414,15.2906655,1.4675732,5.5679932,2.2030822,11.4822097,2.2030822,17.7426495v.1662216c0,9.5297518-1.6363785,18.1302128-4.9039681,25.8031056-3.269312,7.673754-7.909737,14.2519957-13.9195525,19.7373088-6.011538,5.4844518-13.213326,9.7226722-21.6070866,12.7146612-8.3937606,2.9911277-17.6866681,4.4871222-27.8804451,4.4871222-6.7591046,0-13.1582059-.6648864-19.1973039-1.9946593ZM584.0915885,100.7271641c3.269312-.7751267,6.3009186-1.9386779,9.0999871-3.4906538,2.797346-1.5502533,5.331149-3.4484524,7.6031314-5.6920135s4.1839615-4.8057854,5.7342149-7.6875341c1.5502533-2.8800262,2.7422259-6.0933569,3.5741952-9.6391308.8302468-3.5449126,1.2470927-7.3680096,1.2470927-11.4684297v-.1662216c0-6.0942181-.9284295-11.5511099-2.7852885-16.3715365-1.856859-4.8195654-4.4457821-8.9191242-7.7702142-12.2986765-3.3227097-3.378691-7.2999707-5.9417766-11.9248932-7.6875341-4.626645-1.7448963-9.7373135-2.6173444-15.3320055-2.6173444-3.7688381,0-7.2861907.3884246-10.5537802,1.1635513-3.269312.7759879-6.3164211,1.952458-9.1413272,3.5319939-2.8249061,1.5786747-5.3604316,3.4768737-7.6048539,5.6920135-2.2426998,2.2168623-4.1408989,4.7653065-5.6911523,7.6453327-1.5519758,2.8817487-2.7577284,6.0666581-3.6155353,9.5573118-.8595294,3.4897925-1.2884328,7.2853295-1.2884328,11.3848883v.1662216c0,6.1493383.9422095,11.6484314,2.8249061,16.4955568,1.8844191,4.8488479,4.5009022,8.9484068,7.8546169,12.2995378,3.3502697,3.3528535,7.3258083,5.9142165,11.9248932,7.6866728,4.5973624,1.7741788,9.6942509,2.6595457,15.2906655,2.6595457,3.7671156,0,7.2844682-.3867021,10.5537802-1.1635513ZM657.849118,2.7504246h32.6603929l53.2684273,83.2684132h.1653604l-.6648864-28.2550896V2.7504246h27.5083843v119.9999436h-32.8257532l-53.1030669-81.1083935h-.1653604l.6631639,28.4213112v52.6870823h-27.5066618V2.7504246ZM963.4274077,2.7499354h29.1688779v119.9999436h-29.1688779V2.7499354ZM951.4272145,2.7520904h-35.4853573l-35.6569694,45.9137625h-20.3285589V2.7504246h-29.1685666v120.0011202h29.1685666v-45.9154283h20.3285589l35.6569694,45.9137625h35.4853573l-46.0170718-59.9988943,46.0170718-59.9988943Z"/>
</svg>