<?xml version="1.0" encoding="UTF-8"?>
<svg xmlns="http://www.w3.org/2000/svg" xmlns:xlink="http://www.w3.org/1999/xlink" width="px" height="18px" viewBox="0 0 18 18" version="1.1">
<defs>
<clipPath id="clip1">
  <path d="M 0 0.230469 L 18 0.230469 L 18 17.769531 L 0 17.769531 Z M 0 0.230469 "/>
</clipPath>
<clipPath id="clip2">
  <path d="M 1 5 L 17 5 L 17 17.769531 L 1 17.769531 Z M 1 5 "/>
</clipPath>
<clipPath id="clip3">
  <path d="M 1 0.230469 L 17 0.230469 L 17 14 L 1 14 Z M 1 0.230469 "/>
</clipPath>
</defs>
<g id="surface1">
<g clip-path="url(#clip1)" clip-rule="nonzero">
<path style=" stroke:none;fill-rule:evenodd;fill:rgb(14.117648%,21.176471%,37.64706%);fill-opacity:1;" d="M 0 9 C 0 4.15625 4.03125 0.230469 9 0.230469 C 13.96875 0.230469 18 4.15625 18 9 C 18 13.84375 13.96875 17.769531 9 17.769531 C 4.03125 17.769531 0 13.84375 0 9 Z M 0 9 "/>
</g>
<path style=" stroke:none;fill-rule:evenodd;fill:rgb(26.274511%,67.450982%,100%);fill-opacity:1;" d="M 5.464844 10.257812 C 5.464844 10.78125 7.046875 11.203125 9 11.203125 C 10.953125 11.203125 12.535156 10.78125 12.535156 10.257812 L 12.535156 12.5 C 12.535156 13.023438 10.953125 13.445312 9 13.445312 C 7.046875 13.445312 5.464844 13.023438 5.464844 12.5 Z M 5.464844 10.257812 "/>
<path style=" stroke:none;fill-rule:evenodd;fill:rgb(55.686277%,80.392158%,100%);fill-opacity:1;" d="M 5.464844 10.257812 C 5.464844 9.738281 7.046875 9.3125 9 9.3125 C 10.953125 9.3125 12.535156 9.738281 12.535156 10.257812 C 12.535156 10.78125 10.953125 11.203125 9 11.203125 C 7.046875 11.203125 5.464844 10.78125 5.464844 10.257812 Z M 5.464844 10.257812 "/>
<g clip-path="url(#clip2)" clip-rule="nonzero">
<path style="fill:none;stroke-width:1.62857;stroke-linecap:butt;stroke-linejoin:miter;stroke:rgb(14.117648%,21.176471%,37.64706%);stroke-opacity:1;stroke-miterlimit:8;" d="M 204.926215 214.450521 C 204.926215 216.71875 198.246528 218.546875 190 218.546875 C 181.753472 218.546875 175.073785 216.71875 175.073785 214.450521 C 175.073785 212.199219 181.753472 210.354167 190 210.354167 C 198.246528 210.354167 204.926215 212.199219 204.926215 214.450521 L 204.926215 224.166667 C 204.926215 226.434896 198.246528 228.263021 190 228.263021 C 181.753472 228.263021 175.073785 226.434896 175.073785 224.166667 L 175.073785 214.450521 " transform="matrix(0.236842,0,0,0.230769,-36,-39.230769)"/>
</g>
<path style=" stroke:none;fill-rule:evenodd;fill:rgb(26.274511%,67.450982%,100%);fill-opacity:1;" d="M 5.464844 7.90625 C 5.464844 8.445312 7.046875 8.882812 9 8.882812 C 10.953125 8.882812 12.535156 8.445312 12.535156 7.90625 L 12.535156 10.21875 C 12.535156 10.757812 10.953125 11.191406 9 11.191406 C 7.046875 11.191406 5.464844 10.757812 5.464844 10.21875 Z M 5.464844 7.90625 "/>
<path style=" stroke:none;fill-rule:evenodd;fill:rgb(55.686277%,80.392158%,100%);fill-opacity:1;" d="M 5.464844 7.90625 C 5.464844 7.371094 7.046875 6.933594 9 6.933594 C 10.953125 6.933594 12.535156 7.371094 12.535156 7.90625 C 12.535156 8.445312 10.953125 8.882812 9 8.882812 C 7.046875 8.882812 5.464844 8.445312 5.464844 7.90625 Z M 5.464844 7.90625 "/>
<path style="fill:none;stroke-width:1.62857;stroke-linecap:butt;stroke-linejoin:miter;stroke:rgb(14.117648%,21.176471%,37.64706%);stroke-opacity:1;stroke-miterlimit:8;" d="M 204.926215 204.260417 C 204.926215 206.596354 198.246528 208.492188 190 208.492188 C 181.753472 208.492188 175.073785 206.596354 175.073785 204.260417 C 175.073785 201.941406 181.753472 200.045573 190 200.045573 C 198.246528 200.045573 204.926215 201.941406 204.926215 204.260417 L 204.926215 214.28125 C 204.926215 216.617188 198.246528 218.496094 190 218.496094 C 181.753472 218.496094 175.073785 216.617188 175.073785 214.28125 L 175.073785 204.260417 " transform="matrix(0.236842,0,0,0.230769,-36,-39.230769)"/>
<path style=" stroke:none;fill-rule:evenodd;fill:rgb(26.274511%,67.450982%,100%);fill-opacity:1;" d="M 5.464844 5.652344 C 5.464844 6.191406 7.046875 6.625 9 6.625 C 10.953125 6.625 12.535156 6.191406 12.535156 5.652344 L 12.535156 7.964844 C 12.535156 8.5 10.953125 8.9375 9 8.9375 C 7.046875 8.9375 5.464844 8.5 5.464844 7.964844 Z M 5.464844 5.652344 "/>
<path style=" stroke:none;fill-rule:evenodd;fill:rgb(55.686277%,80.392158%,100%);fill-opacity:1;" d="M 5.464844 5.652344 C 5.464844 5.113281 7.046875 4.679688 9 4.679688 C 10.953125 4.679688 12.535156 5.113281 12.535156 5.652344 C 12.535156 6.191406 10.953125 6.625 9 6.625 C 7.046875 6.625 5.464844 6.191406 5.464844 5.652344 Z M 5.464844 5.652344 "/>
<g clip-path="url(#clip3)" clip-rule="nonzero">
<path style="fill:none;stroke-width:1.62857;stroke-linecap:butt;stroke-linejoin:miter;stroke:rgb(14.117648%,21.176471%,37.64706%);stroke-opacity:1;stroke-miterlimit:8;" d="M 204.926215 194.49349 C 204.926215 196.829427 198.246528 198.708333 190 198.708333 C 181.753472 198.708333 175.073785 196.829427 175.073785 194.49349 C 175.073785 192.157552 181.753472 190.278646 190 190.278646 C 198.246528 190.278646 204.926215 192.157552 204.926215 194.49349 L 204.926215 204.514323 C 204.926215 206.833333 198.246528 208.729167 190 208.729167 C 181.753472 208.729167 175.073785 206.833333 175.073785 204.514323 L 175.073785 194.49349 " transform="matrix(0.236842,0,0,0.230769,-36,-39.230769)"/>
</g>
<path style=" stroke:none;fill-rule:evenodd;fill:rgb(26.274511%,67.450982%,100%);fill-opacity:1;" d="M 5.527344 5.617188 C 5.527344 5.132812 7.054688 4.742188 8.9375 4.742188 C 10.816406 4.742188 12.34375 5.132812 12.34375 5.617188 C 12.34375 6.101562 10.816406 6.496094 8.9375 6.496094 C 7.054688 6.496094 5.527344 6.101562 5.527344 5.617188 Z M 5.527344 5.617188 "/>
<path style=" stroke:none;fill-rule:evenodd;fill:rgb(57.254905%,81.568629%,31.37255%);fill-opacity:1;" d="M 9.191406 11.628906 C 9.582031 11.628906 9.898438 11.910156 9.898438 12.257812 C 9.898438 12.601562 9.582031 12.882812 9.191406 12.882812 C 8.800781 12.882812 8.484375 12.601562 8.484375 12.257812 C 8.484375 11.910156 8.800781 11.628906 9.191406 11.628906 Z M 9.191406 11.628906 "/>
<path style=" stroke:none;fill-rule:evenodd;fill:rgb(100%,100%,100%);fill-opacity:1;" d="M 9.191406 9.375 C 9.582031 9.375 9.898438 9.65625 9.898438 10.003906 C 9.898438 10.347656 9.582031 10.628906 9.191406 10.628906 C 8.800781 10.628906 8.484375 10.347656 8.484375 10.003906 C 8.484375 9.65625 8.800781 9.375 9.191406 9.375 Z M 9.191406 9.375 "/>
<path style=" stroke:none;fill-rule:evenodd;fill:rgb(100%,100%,100%);fill-opacity:1;" d="M 9.191406 6.871094 C 9.582031 6.871094 9.898438 7.179688 9.898438 7.558594 C 9.898438 7.941406 9.582031 8.25 9.191406 8.25 C 8.800781 8.25 8.484375 7.941406 8.484375 7.558594 C 8.484375 7.179688 8.800781 6.871094 9.191406 6.871094 Z M 9.191406 6.871094 "/>
</g>
</svg>
